solid OpenSCAD_Model
  facet normal 0.995193 0.097938 7.99352e-19
    outer loop
      vertex 17 12 3.3
      vertex 16.9424 12.5853 0
      vertex 16.9424 12.5853 3.3
    endloop
  endfacet
  facet normal 0.995193 0.097938 7.99352e-19
    outer loop
      vertex 16.9424 12.5853 0
      vertex 17 12 3.3
      vertex 17 12 0
    endloop
  endfacet
  facet normal -0.471329 -0.881957 0
    outer loop
      vertex -12.1667 -14.4944 0
      vertex -11.648 -14.7716 3.3
      vertex -12.1667 -14.4944 3.3
    endloop
  endfacet
  facet normal -0.471329 -0.881957 -0
    outer loop
      vertex -11.648 -14.7716 3.3
      vertex -12.1667 -14.4944 0
      vertex -11.648 -14.7716 0
    endloop
  endfacet
  facet normal -0.989533 -0.144307 0
    outer loop
      vertex -13.4424 -12.5853 0
      vertex -16.9424 11.4147 3.3
      vertex -16.9424 11.4147 0
    endloop
  endfacet
  facet normal -0.989533 -0.144307 0
    outer loop
      vertex -16.9424 11.4147 3.3
      vertex -13.4424 -12.5853 0
      vertex -13.4424 -12.5853 3.3
    endloop
  endfacet
  facet normal 0 1 -0
    outer loop
      vertex 14 15 0
      vertex -14 15 3.3
      vertex 14 15 3.3
    endloop
  endfacet
  facet normal 0 1 0
    outer loop
      vertex -14 15 3.3
      vertex 14 15 0
      vertex -14 15 0
    endloop
  endfacet
  facet normal 0.634413 -0.772994 0
    outer loop
      vertex 12.1667 -14.4944 0
      vertex 12.6213 -14.1213 3.3
      vertex 12.1667 -14.4944 3.3
    endloop
  endfacet
  facet normal 0.634413 -0.772994 0
    outer loop
      vertex 12.6213 -14.1213 3.3
      vertex 12.1667 -14.4944 0
      vertex 12.6213 -14.1213 0
    endloop
  endfacet
  facet normal -0.881957 0.471329 2.64805e-19
    outer loop
      vertex -16.7716 13.148 0
      vertex -16.4944 13.6667 3.3
      vertex -16.4944 13.6667 0
    endloop
  endfacet
  facet normal -0.881957 0.471329 2.64805e-19
    outer loop
      vertex -16.4944 13.6667 3.3
      vertex -16.7716 13.148 0
      vertex -16.7716 13.148 3.3
    endloop
  endfacet
  facet normal 0.881957 0.471329 -2.64805e-19
    outer loop
      vertex 16.7716 13.148 3.3
      vertex 16.4944 13.6667 0
      vertex 16.4944 13.6667 3.3
    endloop
  endfacet
  facet normal 0.881957 0.471329 -2.64805e-19
    outer loop
      vertex 16.4944 13.6667 0
      vertex 16.7716 13.148 3.3
      vertex 16.7716 13.148 0
    endloop
  endfacet
  facet normal 0.290451 -0.95689 0
    outer loop
      vertex 11.0853 -14.9424 0
      vertex 11.648 -14.7716 3.3
      vertex 11.0853 -14.9424 3.3
    endloop
  endfacet
  facet normal 0.290451 -0.95689 0
    outer loop
      vertex 11.648 -14.7716 3.3
      vertex 11.0853 -14.9424 0
      vertex 11.648 -14.7716 0
    endloop
  endfacet
  facet normal -0.772994 -0.634413 -6.47746e-18
    outer loop
      vertex -12.6213 -14.1213 0
      vertex -12.9944 -13.6667 3.3
      vertex -12.9944 -13.6667 0
    endloop
  endfacet
  facet normal -0.772994 -0.634413 -6.47746e-18
    outer loop
      vertex -12.9944 -13.6667 3.3
      vertex -12.6213 -14.1213 0
      vertex -12.6213 -14.1213 3.3
    endloop
  endfacet
  facet normal 0.097938 -0.995193 0
    outer loop
      vertex 10.5 -15 0
      vertex 11.0853 -14.9424 3.3
      vertex 10.5 -15 3.3
    endloop
  endfacet
  facet normal 0.097938 -0.995193 0
    outer loop
      vertex 11.0853 -14.9424 3.3
      vertex 10.5 -15 0
      vertex 11.0853 -14.9424 0
    endloop
  endfacet
  facet normal -0.881957 -0.471329 2.54964e-18
    outer loop
      vertex -12.9944 -13.6667 0
      vertex -13.2716 -13.148 3.3
      vertex -13.2716 -13.148 0
    endloop
  endfacet
  facet normal -0.881957 -0.471329 2.54964e-18
    outer loop
      vertex -13.2716 -13.148 3.3
      vertex -12.9944 -13.6667 0
      vertex -12.9944 -13.6667 3.3
    endloop
  endfacet
  facet normal -0.995193 -0.097938 7.99352e-19
    outer loop
      vertex -16.9424 11.4147 0
      vertex -17 12 3.3
      vertex -17 12 0
    endloop
  endfacet
  facet normal -0.995193 -0.097938 7.99352e-19
    outer loop
      vertex -17 12 3.3
      vertex -16.9424 11.4147 0
      vertex -16.9424 11.4147 3.3
    endloop
  endfacet
  facet normal -0.772994 0.634413 3.77733e-18
    outer loop
      vertex -16.4944 13.6667 0
      vertex -16.1213 14.1213 3.3
      vertex -16.1213 14.1213 0
    endloop
  endfacet
  facet normal -0.772994 0.634413 3.77733e-18
    outer loop
      vertex -16.1213 14.1213 3.3
      vertex -16.4944 13.6667 0
      vertex -16.4944 13.6667 3.3
    endloop
  endfacet
  facet normal -0.097938 -0.995193 0
    outer loop
      vertex -11.0853 -14.9424 0
      vertex -10.5 -15 3.3
      vertex -11.0853 -14.9424 3.3
    endloop
  endfacet
  facet normal -0.097938 -0.995193 -0
    outer loop
      vertex -10.5 -15 3.3
      vertex -11.0853 -14.9424 0
      vertex -10.5 -15 0
    endloop
  endfacet
  facet normal 0.881957 -0.471329 -2.54964e-18
    outer loop
      vertex 12.9944 -13.6667 3.3
      vertex 13.2716 -13.148 0
      vertex 13.2716 -13.148 3.3
    endloop
  endfacet
  facet normal 0.881957 -0.471329 -2.54964e-18
    outer loop
      vertex 13.2716 -13.148 0
      vertex 12.9944 -13.6667 3.3
      vertex 12.9944 -13.6667 0
    endloop
  endfacet
  facet normal 0.290451 0.95689 -0
    outer loop
      vertex 15.148 14.7716 0
      vertex 14.5853 14.9424 3.3
      vertex 15.148 14.7716 3.3
    endloop
  endfacet
  facet normal 0.290451 0.95689 0
    outer loop
      vertex 14.5853 14.9424 3.3
      vertex 15.148 14.7716 0
      vertex 14.5853 14.9424 0
    endloop
  endfacet
  facet normal 0 -1 0
    outer loop
      vertex -10.5 -15 0
      vertex 10.5 -15 3.3
      vertex -10.5 -15 3.3
    endloop
  endfacet
  facet normal 0 -1 -0
    outer loop
      vertex 10.5 -15 3.3
      vertex -10.5 -15 0
      vertex 10.5 -15 0
    endloop
  endfacet
  facet normal -0.471329 0.881957 0
    outer loop
      vertex -15.148 14.7716 0
      vertex -15.6667 14.4944 3.3
      vertex -15.148 14.7716 3.3
    endloop
  endfacet
  facet normal -0.471329 0.881957 0
    outer loop
      vertex -15.6667 14.4944 3.3
      vertex -15.148 14.7716 0
      vertex -15.6667 14.4944 0
    endloop
  endfacet
  facet normal 0.772994 -0.634413 6.47746e-18
    outer loop
      vertex 12.6213 -14.1213 3.3
      vertex 12.9944 -13.6667 0
      vertex 12.9944 -13.6667 3.3
    endloop
  endfacet
  facet normal 0.772994 -0.634413 6.47746e-18
    outer loop
      vertex 12.9944 -13.6667 0
      vertex 12.6213 -14.1213 3.3
      vertex 12.6213 -14.1213 0
    endloop
  endfacet
  facet normal 0.989533 -0.144307 0
    outer loop
      vertex 13.4424 -12.5853 3.3
      vertex 16.9424 11.4147 0
      vertex 16.9424 11.4147 3.3
    endloop
  endfacet
  facet normal 0.989533 -0.144307 0
    outer loop
      vertex 16.9424 11.4147 0
      vertex 13.4424 -12.5853 3.3
      vertex 13.4424 -12.5853 0
    endloop
  endfacet
  facet normal -0.95689 0.290451 -8.6313e-19
    outer loop
      vertex -16.9424 12.5853 0
      vertex -16.7716 13.148 3.3
      vertex -16.7716 13.148 0
    endloop
  endfacet
  facet normal -0.95689 0.290451 -8.6313e-19
    outer loop
      vertex -16.7716 13.148 3.3
      vertex -16.9424 12.5853 0
      vertex -16.9424 12.5853 3.3
    endloop
  endfacet
  facet normal 0.634413 0.772994 -0
    outer loop
      vertex 16.1213 14.1213 0
      vertex 15.6667 14.4944 3.3
      vertex 16.1213 14.1213 3.3
    endloop
  endfacet
  facet normal 0.634413 0.772994 0
    outer loop
      vertex 15.6667 14.4944 3.3
      vertex 16.1213 14.1213 0
      vertex 15.6667 14.4944 0
    endloop
  endfacet
  facet normal -0.097938 0.995193 0
    outer loop
      vertex -14 15 0
      vertex -14.5853 14.9424 3.3
      vertex -14 15 3.3
    endloop
  endfacet
  facet normal -0.097938 0.995193 0
    outer loop
      vertex -14.5853 14.9424 3.3
      vertex -14 15 0
      vertex -14.5853 14.9424 0
    endloop
  endfacet
  facet normal 0 0 1
    outer loop
      vertex 16.9424 12.5853 3.3
      vertex 14.6712 12.2926 3.3
      vertex 14.7 12 3.3
    endloop
  endfacet
  facet normal 0 0 1
    outer loop
      vertex 15.6667 14.4944 3.3
      vertex 14.5858 12.574 3.3
      vertex 14.6712 12.2926 3.3
    endloop
  endfacet
  facet normal 0 0 1
    outer loop
      vertex 14.0334 13.2472 3.3
      vertex 15.148 14.7716 3.3
      vertex 14.5853 14.9424 3.3
    endloop
  endfacet
  facet normal 0 0 1
    outer loop
      vertex 15.6667 14.4944 3.3
      vertex 14.4472 12.8334 3.3
      vertex 14.5858 12.574 3.3
    endloop
  endfacet
  facet normal 0 0 1
    outer loop
      vertex 15.6667 14.4944 3.3
      vertex 14.2607 13.0607 3.3
      vertex 14.4472 12.8334 3.3
    endloop
  endfacet
  facet normal 0 0 1
    outer loop
      vertex 15.148 14.7716 3.3
      vertex 14.0334 13.2472 3.3
      vertex 14.2607 13.0607 3.3
    endloop
  endfacet
  facet normal 0 0 1
    outer loop
      vertex 13.774 13.3858 3.3
      vertex 14.5853 14.9424 3.3
      vertex 14 15 3.3
    endloop
  endfacet
  facet normal 0 0 1
    outer loop
      vertex 14.5853 14.9424 3.3
      vertex 13.774 13.3858 3.3
      vertex 14.0334 13.2472 3.3
    endloop
  endfacet
  facet normal 0 0 1
    outer loop
      vertex 14 15 3.3
      vertex 13.4926 13.4712 3.3
      vertex 13.774 13.3858 3.3
    endloop
  endfacet
  facet normal 0 0 1
    outer loop
      vertex 14 15 3.3
      vertex 13.2 13.5 3.3
      vertex 13.4926 13.4712 3.3
    endloop
  endfacet
  facet normal 0 0 1
    outer loop
      vertex 14 15 3.3
      vertex -13.2 13.5 3.3
      vertex 13.2 13.5 3.3
    endloop
  endfacet
  facet normal -0 0 1
    outer loop
      vertex -14 15 3.3
      vertex -13.2 13.5 3.3
      vertex 14 15 3.3
    endloop
  endfacet
  facet normal 0 0 1
    outer loop
      vertex -14 15 3.3
      vertex -13.4926 13.4712 3.3
      vertex -13.2 13.5 3.3
    endloop
  endfacet
  facet normal 0 0 1
    outer loop
      vertex -14 15 3.3
      vertex -13.774 13.3858 3.3
      vertex -13.4926 13.4712 3.3
    endloop
  endfacet
  facet normal -0 0 1
    outer loop
      vertex -14.5853 14.9424 3.3
      vertex -13.774 13.3858 3.3
      vertex -14 15 3.3
    endloop
  endfacet
  facet normal 0 0 1
    outer loop
      vertex -13.774 13.3858 3.3
      vertex -14.5853 14.9424 3.3
      vertex -14.0334 13.2472 3.3
    endloop
  endfacet
  facet normal -0 0 1
    outer loop
      vertex -15.148 14.7716 3.3
      vertex -14.0334 13.2472 3.3
      vertex -14.5853 14.9424 3.3
    endloop
  endfacet
  facet normal 0 0 1
    outer loop
      vertex -14.0334 13.2472 3.3
      vertex -15.148 14.7716 3.3
      vertex -14.2607 13.0607 3.3
    endloop
  endfacet
  facet normal -0 0 1
    outer loop
      vertex -15.6667 14.4944 3.3
      vertex -14.2607 13.0607 3.3
      vertex -15.148 14.7716 3.3
    endloop
  endfacet
  facet normal 0 0 1
    outer loop
      vertex -14.2607 13.0607 3.3
      vertex -15.6667 14.4944 3.3
      vertex -14.4472 12.8334 3.3
    endloop
  endfacet
  facet normal -0 0 1
    outer loop
      vertex -16.1213 14.1213 3.3
      vertex -14.4472 12.8334 3.3
      vertex -15.6667 14.4944 3.3
    endloop
  endfacet
  facet normal 0 0 1
    outer loop
      vertex -14.4472 12.8334 3.3
      vertex -16.1213 14.1213 3.3
      vertex -14.5858 12.574 3.3
    endloop
  endfacet
  facet normal 0 0 1
    outer loop
      vertex 14.7 12 3.3
      vertex 17 12 3.3
      vertex 16.9424 12.5853 3.3
    endloop
  endfacet
  facet normal 0 0 1
    outer loop
      vertex 14.6712 12.2926 3.3
      vertex 16.9424 12.5853 3.3
      vertex 16.7716 13.148 3.3
    endloop
  endfacet
  facet normal 0 0 1
    outer loop
      vertex 14.6712 12.2926 3.3
      vertex 16.7716 13.148 3.3
      vertex 16.4944 13.6667 3.3
    endloop
  endfacet
  facet normal 0 0 1
    outer loop
      vertex 14.6712 12.2926 3.3
      vertex 16.4944 13.6667 3.3
      vertex 16.1213 14.1213 3.3
    endloop
  endfacet
  facet normal 0 0 1
    outer loop
      vertex 14.6712 12.2926 3.3
      vertex 16.1213 14.1213 3.3
      vertex 15.6667 14.4944 3.3
    endloop
  endfacet
  facet normal 0 0 1
    outer loop
      vertex 14.2607 13.0607 3.3
      vertex 15.6667 14.4944 3.3
      vertex 15.148 14.7716 3.3
    endloop
  endfacet
  facet normal 0 0 1
    outer loop
      vertex 17 12 3.3
      vertex 14.7 12 3.3
      vertex 16.9424 11.4147 3.3
    endloop
  endfacet
  facet normal -0 0 1
    outer loop
      vertex 14.6712 11.7074 3.3
      vertex 16.9424 11.4147 3.3
      vertex 14.7 12 3.3
    endloop
  endfacet
  facet normal 0 0 1
    outer loop
      vertex 14.6712 11.7074 3.3
      vertex 13.4424 -12.5853 3.3
      vertex 16.9424 11.4147 3.3
    endloop
  endfacet
  facet normal -0 0 1
    outer loop
      vertex 11.1712 -12.2926 3.3
      vertex 13.4424 -12.5853 3.3
      vertex 14.6712 11.7074 3.3
    endloop
  endfacet
  facet normal 0 0 1
    outer loop
      vertex 13.4424 -12.5853 3.3
      vertex 11.1712 -12.2926 3.3
      vertex 13.2716 -13.148 3.3
    endloop
  endfacet
  facet normal -0 0 1
    outer loop
      vertex 11.0858 -12.574 3.3
      vertex 13.2716 -13.148 3.3
      vertex 11.1712 -12.2926 3.3
    endloop
  endfacet
  facet normal 0 0 1
    outer loop
      vertex 13.2716 -13.148 3.3
      vertex 11.0858 -12.574 3.3
      vertex 12.9944 -13.6667 3.3
    endloop
  endfacet
  facet normal 0 0 1
    outer loop
      vertex 12.9944 -13.6667 3.3
      vertex 11.0858 -12.574 3.3
      vertex 12.6213 -14.1213 3.3
    endloop
  endfacet
  facet normal -0 0 1
    outer loop
      vertex 10.9472 -12.8334 3.3
      vertex 12.6213 -14.1213 3.3
      vertex 11.0858 -12.574 3.3
    endloop
  endfacet
  facet normal 0 0 1
    outer loop
      vertex 12.6213 -14.1213 3.3
      vertex 10.9472 -12.8334 3.3
      vertex 12.1667 -14.4944 3.3
    endloop
  endfacet
  facet normal -0 0 1
    outer loop
      vertex 10.7607 -13.0607 3.3
      vertex 12.1667 -14.4944 3.3
      vertex 10.9472 -12.8334 3.3
    endloop
  endfacet
  facet normal 0 0 1
    outer loop
      vertex 12.1667 -14.4944 3.3
      vertex 10.7607 -13.0607 3.3
      vertex 11.648 -14.7716 3.3
    endloop
  endfacet
  facet normal -0 0 1
    outer loop
      vertex 10.5334 -13.2472 3.3
      vertex 11.648 -14.7716 3.3
      vertex 10.7607 -13.0607 3.3
    endloop
  endfacet
  facet normal 0 0 1
    outer loop
      vertex 11.648 -14.7716 3.3
      vertex 10.5334 -13.2472 3.3
      vertex 11.0853 -14.9424 3.3
    endloop
  endfacet
  facet normal -0 0 1
    outer loop
      vertex 10.274 -13.3858 3.3
      vertex 11.0853 -14.9424 3.3
      vertex 10.5334 -13.2472 3.3
    endloop
  endfacet
  facet normal 0 0 1
    outer loop
      vertex 11.0853 -14.9424 3.3
      vertex 10.274 -13.3858 3.3
      vertex 10.5 -15 3.3
    endloop
  endfacet
  facet normal -0 0 1
    outer loop
      vertex 9.99263 -13.4712 3.3
      vertex 10.5 -15 3.3
      vertex 10.274 -13.3858 3.3
    endloop
  endfacet
  facet normal -0 0 1
    outer loop
      vertex 9.7 -13.5 3.3
      vertex 10.5 -15 3.3
      vertex 9.99263 -13.4712 3.3
    endloop
  endfacet
  facet normal -0 0 1
    outer loop
      vertex -9.7 -13.5 3.3
      vertex 10.5 -15 3.3
      vertex 9.7 -13.5 3.3
    endloop
  endfacet
  facet normal 0 0 1
    outer loop
      vertex -9.7 -13.5 3.3
      vertex -10.5 -15 3.3
      vertex 10.5 -15 3.3
    endloop
  endfacet
  facet normal 0 0 1
    outer loop
      vertex -9.99263 -13.4712 3.3
      vertex -10.5 -15 3.3
      vertex -9.7 -13.5 3.3
    endloop
  endfacet
  facet normal 0 0 1
    outer loop
      vertex -10.274 -13.3858 3.3
      vertex -10.5 -15 3.3
      vertex -9.99263 -13.4712 3.3
    endloop
  endfacet
  facet normal 0 0 1
    outer loop
      vertex -11.0853 -14.9424 3.3
      vertex -10.274 -13.3858 3.3
      vertex -10.5334 -13.2472 3.3
    endloop
  endfacet
  facet normal 0 0 1
    outer loop
      vertex -11.648 -14.7716 3.3
      vertex -10.5334 -13.2472 3.3
      vertex -10.7607 -13.0607 3.3
    endloop
  endfacet
  facet normal 0 0 1
    outer loop
      vertex -12.1667 -14.4944 3.3
      vertex -10.7607 -13.0607 3.3
      vertex -10.9472 -12.8334 3.3
    endloop
  endfacet
  facet normal 0 0 1
    outer loop
      vertex -10.274 -13.3858 3.3
      vertex -11.0853 -14.9424 3.3
      vertex -10.5 -15 3.3
    endloop
  endfacet
  facet normal 0 0 1
    outer loop
      vertex -12.6213 -14.1213 3.3
      vertex -10.9472 -12.8334 3.3
      vertex -11.0858 -12.574 3.3
    endloop
  endfacet
  facet normal 0 0 1
    outer loop
      vertex -13.2716 -13.148 3.3
      vertex -11.0858 -12.574 3.3
      vertex -11.1712 -12.2926 3.3
    endloop
  endfacet
  facet normal 0 0 1
    outer loop
      vertex -10.5334 -13.2472 3.3
      vertex -11.648 -14.7716 3.3
      vertex -11.0853 -14.9424 3.3
    endloop
  endfacet
  facet normal 0 0 1
    outer loop
      vertex -10.7607 -13.0607 3.3
      vertex -12.1667 -14.4944 3.3
      vertex -11.648 -14.7716 3.3
    endloop
  endfacet
  facet normal 0 0 1
    outer loop
      vertex -10.9472 -12.8334 3.3
      vertex -12.6213 -14.1213 3.3
      vertex -12.1667 -14.4944 3.3
    endloop
  endfacet
  facet normal 0 0 1
    outer loop
      vertex -11.0858 -12.574 3.3
      vertex -12.9944 -13.6667 3.3
      vertex -12.6213 -14.1213 3.3
    endloop
  endfacet
  facet normal 0 0 1
    outer loop
      vertex -11.0858 -12.574 3.3
      vertex -13.2716 -13.148 3.3
      vertex -12.9944 -13.6667 3.3
    endloop
  endfacet
  facet normal 0 0 1
    outer loop
      vertex -11.1712 -12.2926 3.3
      vertex -13.4424 -12.5853 3.3
      vertex -13.2716 -13.148 3.3
    endloop
  endfacet
  facet normal 0 0 1
    outer loop
      vertex -14.6712 11.7074 3.3
      vertex -13.4424 -12.5853 3.3
      vertex -11.1712 -12.2926 3.3
    endloop
  endfacet
  facet normal 0 0 1
    outer loop
      vertex -16.9424 11.4147 3.3
      vertex -14.6712 11.7074 3.3
      vertex -14.7 12 3.3
    endloop
  endfacet
  facet normal -0 0 1
    outer loop
      vertex -16.4944 13.6667 3.3
      vertex -14.5858 12.574 3.3
      vertex -16.1213 14.1213 3.3
    endloop
  endfacet
  facet normal -0 0 1
    outer loop
      vertex -16.7716 13.148 3.3
      vertex -14.5858 12.574 3.3
      vertex -16.4944 13.6667 3.3
    endloop
  endfacet
  facet normal 0 0 1
    outer loop
      vertex -14.5858 12.574 3.3
      vertex -16.7716 13.148 3.3
      vertex -14.6712 12.2926 3.3
    endloop
  endfacet
  facet normal -0 0 1
    outer loop
      vertex -16.9424 12.5853 3.3
      vertex -14.6712 12.2926 3.3
      vertex -16.7716 13.148 3.3
    endloop
  endfacet
  facet normal 0 0 1
    outer loop
      vertex -14.6712 12.2926 3.3
      vertex -16.9424 12.5853 3.3
      vertex -14.7 12 3.3
    endloop
  endfacet
  facet normal 0 0 1
    outer loop
      vertex -17 12 3.3
      vertex -14.7 12 3.3
      vertex -16.9424 12.5853 3.3
    endloop
  endfacet
  facet normal 0 0 1
    outer loop
      vertex -14.6712 11.7074 3.3
      vertex -16.9424 11.4147 3.3
      vertex -13.4424 -12.5853 3.3
    endloop
  endfacet
  facet normal 0 0 1
    outer loop
      vertex -14.7 12 3.3
      vertex -17 12 3.3
      vertex -16.9424 11.4147 3.3
    endloop
  endfacet
  facet normal 0.772994 0.634413 -3.77733e-18
    outer loop
      vertex 16.4944 13.6667 3.3
      vertex 16.1213 14.1213 0
      vertex 16.1213 14.1213 3.3
    endloop
  endfacet
  facet normal 0.772994 0.634413 -3.77733e-18
    outer loop
      vertex 16.1213 14.1213 0
      vertex 16.4944 13.6667 3.3
      vertex 16.4944 13.6667 0
    endloop
  endfacet
  facet normal -0.995193 0.097938 -7.99352e-19
    outer loop
      vertex -17 12 0
      vertex -16.9424 12.5853 3.3
      vertex -16.9424 12.5853 0
    endloop
  endfacet
  facet normal -0.995193 0.097938 -7.99352e-19
    outer loop
      vertex -16.9424 12.5853 3.3
      vertex -17 12 0
      vertex -17 12 3.3
    endloop
  endfacet
  facet normal -0.290451 -0.95689 0
    outer loop
      vertex -11.648 -14.7716 0
      vertex -11.0853 -14.9424 3.3
      vertex -11.648 -14.7716 3.3
    endloop
  endfacet
  facet normal -0.290451 -0.95689 -0
    outer loop
      vertex -11.0853 -14.9424 3.3
      vertex -11.648 -14.7716 0
      vertex -11.0853 -14.9424 0
    endloop
  endfacet
  facet normal 0.097938 0.995193 -0
    outer loop
      vertex 14.5853 14.9424 0
      vertex 14 15 3.3
      vertex 14.5853 14.9424 3.3
    endloop
  endfacet
  facet normal 0.097938 0.995193 0
    outer loop
      vertex 14 15 3.3
      vertex 14.5853 14.9424 0
      vertex 14 15 0
    endloop
  endfacet
  facet normal -0.634413 -0.772994 0
    outer loop
      vertex -12.6213 -14.1213 0
      vertex -12.1667 -14.4944 3.3
      vertex -12.6213 -14.1213 3.3
    endloop
  endfacet
  facet normal -0.634413 -0.772994 -0
    outer loop
      vertex -12.1667 -14.4944 3.3
      vertex -12.6213 -14.1213 0
      vertex -12.1667 -14.4944 0
    endloop
  endfacet
  facet normal 0.95689 -0.290451 -8.6313e-19
    outer loop
      vertex 13.2716 -13.148 3.3
      vertex 13.4424 -12.5853 0
      vertex 13.4424 -12.5853 3.3
    endloop
  endfacet
  facet normal 0.95689 -0.290451 -8.6313e-19
    outer loop
      vertex 13.4424 -12.5853 0
      vertex 13.2716 -13.148 3.3
      vertex 13.2716 -13.148 0
    endloop
  endfacet
  facet normal -0.95689 -0.290451 8.6313e-19
    outer loop
      vertex -13.2716 -13.148 0
      vertex -13.4424 -12.5853 3.3
      vertex -13.4424 -12.5853 0
    endloop
  endfacet
  facet normal -0.95689 -0.290451 8.6313e-19
    outer loop
      vertex -13.4424 -12.5853 3.3
      vertex -13.2716 -13.148 0
      vertex -13.2716 -13.148 3.3
    endloop
  endfacet
  facet normal 0.995193 -0.097938 -7.99352e-19
    outer loop
      vertex 16.9424 11.4147 3.3
      vertex 17 12 0
      vertex 17 12 3.3
    endloop
  endfacet
  facet normal 0.995193 -0.097938 -7.99352e-19
    outer loop
      vertex 17 12 0
      vertex 16.9424 11.4147 3.3
      vertex 16.9424 11.4147 0
    endloop
  endfacet
  facet normal 0.471329 -0.881957 0
    outer loop
      vertex 11.648 -14.7716 0
      vertex 12.1667 -14.4944 3.3
      vertex 11.648 -14.7716 3.3
    endloop
  endfacet
  facet normal 0.471329 -0.881957 0
    outer loop
      vertex 12.1667 -14.4944 3.3
      vertex 11.648 -14.7716 0
      vertex 12.1667 -14.4944 0
    endloop
  endfacet
  facet normal -0.290451 0.95689 0
    outer loop
      vertex -14.5853 14.9424 0
      vertex -15.148 14.7716 3.3
      vertex -14.5853 14.9424 3.3
    endloop
  endfacet
  facet normal -0.290451 0.95689 0
    outer loop
      vertex -15.148 14.7716 3.3
      vertex -14.5853 14.9424 0
      vertex -15.148 14.7716 0
    endloop
  endfacet
  facet normal 0.471329 0.881957 -0
    outer loop
      vertex 15.6667 14.4944 0
      vertex 15.148 14.7716 3.3
      vertex 15.6667 14.4944 3.3
    endloop
  endfacet
  facet normal 0.471329 0.881957 0
    outer loop
      vertex 15.148 14.7716 3.3
      vertex 15.6667 14.4944 0
      vertex 15.148 14.7716 0
    endloop
  endfacet
  facet normal 0.95689 0.290451 8.6313e-19
    outer loop
      vertex 16.9424 12.5853 3.3
      vertex 16.7716 13.148 0
      vertex 16.7716 13.148 3.3
    endloop
  endfacet
  facet normal 0.95689 0.290451 8.6313e-19
    outer loop
      vertex 16.7716 13.148 0
      vertex 16.9424 12.5853 3.3
      vertex 16.9424 12.5853 0
    endloop
  endfacet
  facet normal 0 0 -1
    outer loop
      vertex 16.9424 11.4147 0
      vertex 16.9424 12.5853 0
      vertex 17 12 0
    endloop
  endfacet
  facet normal 0 0 -1
    outer loop
      vertex 16.9424 11.4147 0
      vertex 16.7716 13.148 0
      vertex 16.9424 12.5853 0
    endloop
  endfacet
  facet normal 0 0 -1
    outer loop
      vertex 16.9424 11.4147 0
      vertex 16.4944 13.6667 0
      vertex 16.7716 13.148 0
    endloop
  endfacet
  facet normal 0 0 -1
    outer loop
      vertex 16.9424 11.4147 0
      vertex 16.1213 14.1213 0
      vertex 16.4944 13.6667 0
    endloop
  endfacet
  facet normal 0 0 -1
    outer loop
      vertex 16.9424 11.4147 0
      vertex 15.6667 14.4944 0
      vertex 16.1213 14.1213 0
    endloop
  endfacet
  facet normal 0 0 -1
    outer loop
      vertex 16.9424 11.4147 0
      vertex 15.148 14.7716 0
      vertex 15.6667 14.4944 0
    endloop
  endfacet
  facet normal 0 0 -1
    outer loop
      vertex 16.9424 11.4147 0
      vertex 14.5853 14.9424 0
      vertex 15.148 14.7716 0
    endloop
  endfacet
  facet normal 0 0 -1
    outer loop
      vertex 16.9424 11.4147 0
      vertex 14 15 0
      vertex 14.5853 14.9424 0
    endloop
  endfacet
  facet normal 0 0 -1
    outer loop
      vertex 13.4424 -12.5853 0
      vertex 14 15 0
      vertex 16.9424 11.4147 0
    endloop
  endfacet
  facet normal 0 0 -1
    outer loop
      vertex 10.5 -15 0
      vertex 13.4424 -12.5853 0
      vertex 13.2716 -13.148 0
    endloop
  endfacet
  facet normal 0 0 -1
    outer loop
      vertex 10.5 -15 0
      vertex 13.2716 -13.148 0
      vertex 12.9944 -13.6667 0
    endloop
  endfacet
  facet normal 0 0 -1
    outer loop
      vertex 10.5 -15 0
      vertex 12.9944 -13.6667 0
      vertex 12.6213 -14.1213 0
    endloop
  endfacet
  facet normal 0 0 -1
    outer loop
      vertex 10.5 -15 0
      vertex 12.6213 -14.1213 0
      vertex 12.1667 -14.4944 0
    endloop
  endfacet
  facet normal 0 0 -1
    outer loop
      vertex 10.5 -15 0
      vertex 12.1667 -14.4944 0
      vertex 11.648 -14.7716 0
    endloop
  endfacet
  facet normal 0 0 -1
    outer loop
      vertex 10.5 -15 0
      vertex 11.648 -14.7716 0
      vertex 11.0853 -14.9424 0
    endloop
  endfacet
  facet normal 0 0 -1
    outer loop
      vertex -13.4424 -12.5853 0
      vertex 13.4424 -12.5853 0
      vertex 10.5 -15 0
    endloop
  endfacet
  facet normal 0 0 -1
    outer loop
      vertex -13.4424 -12.5853 0
      vertex 10.5 -15 0
      vertex -10.5 -15 0
    endloop
  endfacet
  facet normal 0 0 -1
    outer loop
      vertex -13.4424 -12.5853 0
      vertex -10.5 -15 0
      vertex -11.0853 -14.9424 0
    endloop
  endfacet
  facet normal 0 0 -1
    outer loop
      vertex -13.4424 -12.5853 0
      vertex -11.0853 -14.9424 0
      vertex -11.648 -14.7716 0
    endloop
  endfacet
  facet normal 0 0 -1
    outer loop
      vertex -13.4424 -12.5853 0
      vertex -11.648 -14.7716 0
      vertex -12.1667 -14.4944 0
    endloop
  endfacet
  facet normal 0 0 -1
    outer loop
      vertex -13.4424 -12.5853 0
      vertex -12.1667 -14.4944 0
      vertex -12.6213 -14.1213 0
    endloop
  endfacet
  facet normal 0 0 -1
    outer loop
      vertex -13.4424 -12.5853 0
      vertex -12.6213 -14.1213 0
      vertex -12.9944 -13.6667 0
    endloop
  endfacet
  facet normal 0 0 -1
    outer loop
      vertex -13.4424 -12.5853 0
      vertex -12.9944 -13.6667 0
      vertex -13.2716 -13.148 0
    endloop
  endfacet
  facet normal 0 0 -1
    outer loop
      vertex 13.4424 -12.5853 0
      vertex -13.4424 -12.5853 0
      vertex 14 15 0
    endloop
  endfacet
  facet normal 0 0 -1
    outer loop
      vertex -13.4424 -12.5853 0
      vertex -14 15 0
      vertex 14 15 0
    endloop
  endfacet
  facet normal 0 0 -1
    outer loop
      vertex -16.9424 11.4147 0
      vertex -14 15 0
      vertex -13.4424 -12.5853 0
    endloop
  endfacet
  facet normal 0 0 -1
    outer loop
      vertex -14 15 0
      vertex -16.9424 11.4147 0
      vertex -14.5853 14.9424 0
    endloop
  endfacet
  facet normal 0 0 -1
    outer loop
      vertex -14.5853 14.9424 0
      vertex -16.9424 11.4147 0
      vertex -15.148 14.7716 0
    endloop
  endfacet
  facet normal 0 0 -1
    outer loop
      vertex -15.148 14.7716 0
      vertex -16.9424 11.4147 0
      vertex -15.6667 14.4944 0
    endloop
  endfacet
  facet normal 0 0 -1
    outer loop
      vertex -15.6667 14.4944 0
      vertex -16.9424 11.4147 0
      vertex -16.1213 14.1213 0
    endloop
  endfacet
  facet normal 0 0 -1
    outer loop
      vertex -16.1213 14.1213 0
      vertex -16.9424 11.4147 0
      vertex -16.4944 13.6667 0
    endloop
  endfacet
  facet normal 0 0 -1
    outer loop
      vertex -16.4944 13.6667 0
      vertex -16.9424 11.4147 0
      vertex -16.7716 13.148 0
    endloop
  endfacet
  facet normal 0 0 -1
    outer loop
      vertex -16.9424 11.4147 0
      vertex -16.9424 12.5853 0
      vertex -16.7716 13.148 0
    endloop
  endfacet
  facet normal 0 -0 -1
    outer loop
      vertex -16.9424 12.5853 0
      vertex -16.9424 11.4147 0
      vertex -17 12 0
    endloop
  endfacet
  facet normal -0.634413 0.772994 0
    outer loop
      vertex -15.6667 14.4944 0
      vertex -16.1213 14.1213 3.3
      vertex -15.6667 14.4944 3.3
    endloop
  endfacet
  facet normal -0.634413 0.772994 0
    outer loop
      vertex -16.1213 14.1213 3.3
      vertex -15.6667 14.4944 0
      vertex -16.1213 14.1213 0
    endloop
  endfacet
  facet normal -0.290404 -0.956904 0
    outer loop
      vertex 13.4926 13.4712 1.8
      vertex 13.774 13.3858 3.3
      vertex 13.4926 13.4712 3.3
    endloop
  endfacet
  facet normal -0.290404 -0.956904 -0
    outer loop
      vertex 13.774 13.3858 3.3
      vertex 13.4926 13.4712 1.8
      vertex 13.774 13.3858 1.8
    endloop
  endfacet
  facet normal -0.290432 0.956896 0
    outer loop
      vertex 10.274 -13.3858 1.8
      vertex 9.99263 -13.4712 3.3
      vertex 10.274 -13.3858 3.3
    endloop
  endfacet
  facet normal -0.290432 0.956896 0
    outer loop
      vertex 9.99263 -13.4712 3.3
      vertex 10.274 -13.3858 1.8
      vertex 9.99263 -13.4712 1.8
    endloop
  endfacet
  facet normal 0.634311 0.773078 -0
    outer loop
      vertex -10.5334 -13.2472 1.8
      vertex -10.7607 -13.0607 3.3
      vertex -10.5334 -13.2472 3.3
    endloop
  endfacet
  facet normal 0.634311 0.773078 0
    outer loop
      vertex -10.7607 -13.0607 3.3
      vertex -10.5334 -13.2472 1.8
      vertex -10.7607 -13.0607 1.8
    endloop
  endfacet
  facet normal -0.989533 0.144307 0
    outer loop
      vertex 11.1712 -12.2926 1.8
      vertex 14.6712 11.7074 3.3
      vertex 14.6712 11.7074 1.8
    endloop
  endfacet
  facet normal -0.989533 0.144307 0
    outer loop
      vertex 14.6712 11.7074 3.3
      vertex 11.1712 -12.2926 1.8
      vertex 11.1712 -12.2926 3.3
    endloop
  endfacet
  facet normal 0.956904 0.290404 1.42393e-18
    outer loop
      vertex -11.0858 -12.574 3.3
      vertex -11.1712 -12.2926 1.8
      vertex -11.1712 -12.2926 3.3
    endloop
  endfacet
  facet normal 0.956904 0.290404 1.42393e-18
    outer loop
      vertex -11.1712 -12.2926 1.8
      vertex -11.0858 -12.574 3.3
      vertex -11.0858 -12.574 1.8
    endloop
  endfacet
  facet normal 0 -1 0
    outer loop
      vertex -13.2 13.5 1.8
      vertex 13.2 13.5 3.3
      vertex -13.2 13.5 3.3
    endloop
  endfacet
  facet normal 0 -1 -0
    outer loop
      vertex 13.2 13.5 3.3
      vertex -13.2 13.5 1.8
      vertex 13.2 13.5 1.8
    endloop
  endfacet
  facet normal -0.471259 0.881995 0
    outer loop
      vertex 10.5334 -13.2472 1.8
      vertex 10.274 -13.3858 3.3
      vertex 10.5334 -13.2472 3.3
    endloop
  endfacet
  facet normal -0.471259 0.881995 0
    outer loop
      vertex 10.274 -13.3858 3.3
      vertex 10.5334 -13.2472 1.8
      vertex 10.274 -13.3858 1.8
    endloop
  endfacet
  facet normal 0.989533 0.144307 0
    outer loop
      vertex -11.1712 -12.2926 3.3
      vertex -14.6712 11.7074 1.8
      vertex -14.6712 11.7074 3.3
    endloop
  endfacet
  facet normal 0.989533 0.144307 0
    outer loop
      vertex -14.6712 11.7074 1.8
      vertex -11.1712 -12.2926 3.3
      vertex -11.1712 -12.2926 1.8
    endloop
  endfacet
  facet normal 0.881995 -0.471259 -5.76738e-18
    outer loop
      vertex -14.5858 12.574 3.3
      vertex -14.4472 12.8334 1.8
      vertex -14.4472 12.8334 3.3
    endloop
  endfacet
  facet normal 0.881995 -0.471259 -5.76738e-18
    outer loop
      vertex -14.4472 12.8334 1.8
      vertex -14.5858 12.574 3.3
      vertex -14.5858 12.574 1.8
    endloop
  endfacet
  facet normal 0.290404 -0.956904 0
    outer loop
      vertex -13.774 13.3858 1.8
      vertex -13.4926 13.4712 3.3
      vertex -13.774 13.3858 3.3
    endloop
  endfacet
  facet normal 0.290404 -0.956904 0
    outer loop
      vertex -13.4926 13.4712 3.3
      vertex -13.774 13.3858 1.8
      vertex -13.4926 13.4712 1.8
    endloop
  endfacet
  facet normal 0.995191 -0.0979545 5.81528e-19
    outer loop
      vertex -14.7 12 3.3
      vertex -14.6712 12.2926 1.8
      vertex -14.6712 12.2926 3.3
    endloop
  endfacet
  facet normal 0.995191 -0.0979545 5.81528e-19
    outer loop
      vertex -14.6712 12.2926 1.8
      vertex -14.7 12 3.3
      vertex -14.7 12 1.8
    endloop
  endfacet
  facet normal -0.634311 -0.773078 0
    outer loop
      vertex 14.0334 13.2472 1.8
      vertex 14.2607 13.0607 3.3
      vertex 14.0334 13.2472 3.3
    endloop
  endfacet
  facet normal -0.634311 -0.773078 -0
    outer loop
      vertex 14.2607 13.0607 3.3
      vertex 14.0334 13.2472 1.8
      vertex 14.2607 13.0607 1.8
    endloop
  endfacet
  facet normal 0 1 -0
    outer loop
      vertex 9.7 -13.5 1.8
      vertex -9.7 -13.5 3.3
      vertex 9.7 -13.5 3.3
    endloop
  endfacet
  facet normal 0 1 0
    outer loop
      vertex -9.7 -13.5 3.3
      vertex 9.7 -13.5 1.8
      vertex -9.7 -13.5 1.8
    endloop
  endfacet
  facet normal 0.290432 0.956896 -0
    outer loop
      vertex -9.99263 -13.4712 1.8
      vertex -10.274 -13.3858 3.3
      vertex -9.99263 -13.4712 3.3
    endloop
  endfacet
  facet normal 0.290432 0.956896 0
    outer loop
      vertex -10.274 -13.3858 3.3
      vertex -9.99263 -13.4712 1.8
      vertex -10.274 -13.3858 1.8
    endloop
  endfacet
  facet normal 0.0979545 -0.995191 0
    outer loop
      vertex -13.4926 13.4712 1.8
      vertex -13.2 13.5 3.3
      vertex -13.4926 13.4712 3.3
    endloop
  endfacet
  facet normal 0.0979545 -0.995191 0
    outer loop
      vertex -13.2 13.5 3.3
      vertex -13.4926 13.4712 1.8
      vertex -13.2 13.5 1.8
    endloop
  endfacet
  facet normal 0.956904 -0.290404 -1.42393e-18
    outer loop
      vertex -14.6712 12.2926 3.3
      vertex -14.5858 12.574 1.8
      vertex -14.5858 12.574 3.3
    endloop
  endfacet
  facet normal 0.956904 -0.290404 -1.42393e-18
    outer loop
      vertex -14.5858 12.574 1.8
      vertex -14.6712 12.2926 3.3
      vertex -14.6712 12.2926 1.8
    endloop
  endfacet
  facet normal -0.995191 -0.0979545 -5.81528e-19
    outer loop
      vertex 14.7 12 1.8
      vertex 14.6712 12.2926 3.3
      vertex 14.6712 12.2926 1.8
    endloop
  endfacet
  facet normal -0.995191 -0.0979545 -5.81528e-19
    outer loop
      vertex 14.6712 12.2926 3.3
      vertex 14.7 12 1.8
      vertex 14.7 12 3.3
    endloop
  endfacet
  facet normal 0.634311 -0.773078 0
    outer loop
      vertex -14.2607 13.0607 1.8
      vertex -14.0334 13.2472 3.3
      vertex -14.2607 13.0607 3.3
    endloop
  endfacet
  facet normal 0.634311 -0.773078 0
    outer loop
      vertex -14.0334 13.2472 3.3
      vertex -14.2607 13.0607 1.8
      vertex -14.0334 13.2472 1.8
    endloop
  endfacet
  facet normal -0.881995 0.471259 -5.76738e-18
    outer loop
      vertex 10.9472 -12.8334 1.8
      vertex 11.0858 -12.574 3.3
      vertex 11.0858 -12.574 1.8
    endloop
  endfacet
  facet normal -0.881995 0.471259 -5.76738e-18
    outer loop
      vertex 11.0858 -12.574 3.3
      vertex 10.9472 -12.8334 1.8
      vertex 10.9472 -12.8334 3.3
    endloop
  endfacet
  facet normal 0.471259 0.881995 -0
    outer loop
      vertex -10.274 -13.3858 1.8
      vertex -10.5334 -13.2472 3.3
      vertex -10.274 -13.3858 3.3
    endloop
  endfacet
  facet normal 0.471259 0.881995 0
    outer loop
      vertex -10.5334 -13.2472 3.3
      vertex -10.274 -13.3858 1.8
      vertex -10.5334 -13.2472 1.8
    endloop
  endfacet
  facet normal -0.956904 0.290404 -1.42393e-18
    outer loop
      vertex 11.0858 -12.574 1.8
      vertex 11.1712 -12.2926 3.3
      vertex 11.1712 -12.2926 1.8
    endloop
  endfacet
  facet normal -0.956904 0.290404 -1.42393e-18
    outer loop
      vertex 11.1712 -12.2926 3.3
      vertex 11.0858 -12.574 1.8
      vertex 11.0858 -12.574 3.3
    endloop
  endfacet
  facet normal 0.0979446 0.995192 -0
    outer loop
      vertex -9.7 -13.5 1.8
      vertex -9.99263 -13.4712 3.3
      vertex -9.7 -13.5 3.3
    endloop
  endfacet
  facet normal 0.0979446 0.995192 0
    outer loop
      vertex -9.99263 -13.4712 3.3
      vertex -9.7 -13.5 1.8
      vertex -9.99263 -13.4712 1.8
    endloop
  endfacet
  facet normal -0.773078 -0.634311 1.33882e-18
    outer loop
      vertex 14.4472 12.8334 1.8
      vertex 14.2607 13.0607 3.3
      vertex 14.2607 13.0607 1.8
    endloop
  endfacet
  facet normal -0.773078 -0.634311 1.33882e-18
    outer loop
      vertex 14.2607 13.0607 3.3
      vertex 14.4472 12.8334 1.8
      vertex 14.4472 12.8334 3.3
    endloop
  endfacet
  facet normal -0.956904 -0.290404 1.42393e-18
    outer loop
      vertex 14.6712 12.2926 1.8
      vertex 14.5858 12.574 3.3
      vertex 14.5858 12.574 1.8
    endloop
  endfacet
  facet normal -0.956904 -0.290404 1.42393e-18
    outer loop
      vertex 14.5858 12.574 3.3
      vertex 14.6712 12.2926 1.8
      vertex 14.6712 12.2926 3.3
    endloop
  endfacet
  facet normal 0.773078 0.634311 1.33882e-18
    outer loop
      vertex -10.7607 -13.0607 3.3
      vertex -10.9472 -12.8334 1.8
      vertex -10.9472 -12.8334 3.3
    endloop
  endfacet
  facet normal 0.773078 0.634311 1.33882e-18
    outer loop
      vertex -10.9472 -12.8334 1.8
      vertex -10.7607 -13.0607 3.3
      vertex -10.7607 -13.0607 1.8
    endloop
  endfacet
  facet normal 0.995191 0.0979545 -5.81528e-19
    outer loop
      vertex -14.6712 11.7074 3.3
      vertex -14.7 12 1.8
      vertex -14.7 12 3.3
    endloop
  endfacet
  facet normal 0.995191 0.0979545 -5.81528e-19
    outer loop
      vertex -14.7 12 1.8
      vertex -14.6712 11.7074 3.3
      vertex -14.6712 11.7074 1.8
    endloop
  endfacet
  facet normal 0.881995 0.471259 5.76738e-18
    outer loop
      vertex -10.9472 -12.8334 3.3
      vertex -11.0858 -12.574 1.8
      vertex -11.0858 -12.574 3.3
    endloop
  endfacet
  facet normal 0.881995 0.471259 5.76738e-18
    outer loop
      vertex -11.0858 -12.574 1.8
      vertex -10.9472 -12.8334 3.3
      vertex -10.9472 -12.8334 1.8
    endloop
  endfacet
  facet normal -0.0979545 -0.995191 0
    outer loop
      vertex 13.2 13.5 1.8
      vertex 13.4926 13.4712 3.3
      vertex 13.2 13.5 3.3
    endloop
  endfacet
  facet normal -0.0979545 -0.995191 -0
    outer loop
      vertex 13.4926 13.4712 3.3
      vertex 13.2 13.5 1.8
      vertex 13.4926 13.4712 1.8
    endloop
  endfacet
  facet normal -0.634311 0.773078 0
    outer loop
      vertex 10.7607 -13.0607 1.8
      vertex 10.5334 -13.2472 3.3
      vertex 10.7607 -13.0607 3.3
    endloop
  endfacet
  facet normal -0.634311 0.773078 0
    outer loop
      vertex 10.5334 -13.2472 3.3
      vertex 10.7607 -13.0607 1.8
      vertex 10.5334 -13.2472 1.8
    endloop
  endfacet
  facet normal -0.995191 0.0979545 5.81528e-19
    outer loop
      vertex 14.6712 11.7074 1.8
      vertex 14.7 12 3.3
      vertex 14.7 12 1.8
    endloop
  endfacet
  facet normal -0.995191 0.0979545 5.81528e-19
    outer loop
      vertex 14.7 12 3.3
      vertex 14.6712 11.7074 1.8
      vertex 14.6712 11.7074 3.3
    endloop
  endfacet
  facet normal -0.471259 -0.881995 0
    outer loop
      vertex 13.774 13.3858 1.8
      vertex 14.0334 13.2472 3.3
      vertex 13.774 13.3858 3.3
    endloop
  endfacet
  facet normal -0.471259 -0.881995 -0
    outer loop
      vertex 14.0334 13.2472 3.3
      vertex 13.774 13.3858 1.8
      vertex 14.0334 13.2472 1.8
    endloop
  endfacet
  facet normal -0.881995 -0.471259 5.76738e-18
    outer loop
      vertex 14.5858 12.574 1.8
      vertex 14.4472 12.8334 3.3
      vertex 14.4472 12.8334 1.8
    endloop
  endfacet
  facet normal -0.881995 -0.471259 5.76738e-18
    outer loop
      vertex 14.4472 12.8334 3.3
      vertex 14.5858 12.574 1.8
      vertex 14.5858 12.574 3.3
    endloop
  endfacet
  facet normal 0 0 1
    outer loop
      vertex 14.6712 11.7074 1.8
      vertex 12.9039 5.97545 1.8
      vertex 13 5 1.8
    endloop
  endfacet
  facet normal 0 0 1
    outer loop
      vertex 14.6712 11.7074 1.8
      vertex 12.6194 6.91342 1.8
      vertex 12.9039 5.97545 1.8
    endloop
  endfacet
  facet normal 0 0 1
    outer loop
      vertex 14.6712 11.7074 1.8
      vertex 12.1573 7.77785 1.8
      vertex 12.6194 6.91342 1.8
    endloop
  endfacet
  facet normal 0 0 1
    outer loop
      vertex 14.6712 11.7074 1.8
      vertex 11.5355 8.53553 1.8
      vertex 12.1573 7.77785 1.8
    endloop
  endfacet
  facet normal 0 0 1
    outer loop
      vertex 14.6712 11.7074 1.8
      vertex 10.7779 9.15735 1.8
      vertex 11.5355 8.53553 1.8
    endloop
  endfacet
  facet normal 0 0 1
    outer loop
      vertex 13.2 13.5 1.8
      vertex 9.91342 9.6194 1.8
      vertex 10.7779 9.15735 1.8
    endloop
  endfacet
  facet normal 0 0 1
    outer loop
      vertex 13.2 13.5 1.8
      vertex 8.97545 9.90393 1.8
      vertex 9.91342 9.6194 1.8
    endloop
  endfacet
  facet normal 0 0 1
    outer loop
      vertex 13.2 13.5 1.8
      vertex 8 10 1.8
      vertex 8.97545 9.90393 1.8
    endloop
  endfacet
  facet normal 0 0 1
    outer loop
      vertex 13.2 13.5 1.8
      vertex 7.02455 9.90393 1.8
      vertex 8 10 1.8
    endloop
  endfacet
  facet normal 0 0 1
    outer loop
      vertex 13.2 13.5 1.8
      vertex 6.08658 9.6194 1.8
      vertex 7.02455 9.90393 1.8
    endloop
  endfacet
  facet normal 0 0 1
    outer loop
      vertex -6.08658 9.6194 1.8
      vertex 6.08658 9.6194 1.8
      vertex 13.2 13.5 1.8
    endloop
  endfacet
  facet normal 0 0 1
    outer loop
      vertex 3.09607 5.97545 1.8
      vertex -3 5 1.8
      vertex 3 5 1.8
    endloop
  endfacet
  facet normal 0 0 1
    outer loop
      vertex -3.09607 5.97545 1.8
      vertex 3.09607 5.97545 1.8
      vertex 3.3806 6.91342 1.8
    endloop
  endfacet
  facet normal 0 0 1
    outer loop
      vertex -3.3806 6.91342 1.8
      vertex 3.3806 6.91342 1.8
      vertex 3.84265 7.77785 1.8
    endloop
  endfacet
  facet normal 0 0 1
    outer loop
      vertex -3.84265 7.77785 1.8
      vertex 3.84265 7.77785 1.8
      vertex 4.46447 8.53553 1.8
    endloop
  endfacet
  facet normal 0 0 1
    outer loop
      vertex -4.46447 8.53553 1.8
      vertex 4.46447 8.53553 1.8
      vertex 5.22215 9.15735 1.8
    endloop
  endfacet
  facet normal 0 0 1
    outer loop
      vertex 6.08658 9.6194 1.8
      vertex -6.08658 9.6194 1.8
      vertex 5.22215 9.15735 1.8
    endloop
  endfacet
  facet normal 0 0 1
    outer loop
      vertex 3.09607 5.97545 1.8
      vertex -3.09607 5.97545 1.8
      vertex -3 5 1.8
    endloop
  endfacet
  facet normal 0 0 1
    outer loop
      vertex 3.3806 6.91342 1.8
      vertex -3.3806 6.91342 1.8
      vertex -3.09607 5.97545 1.8
    endloop
  endfacet
  facet normal 0 0 1
    outer loop
      vertex 3.84265 7.77785 1.8
      vertex -3.84265 7.77785 1.8
      vertex -3.3806 6.91342 1.8
    endloop
  endfacet
  facet normal 0 0 1
    outer loop
      vertex 4.46447 8.53553 1.8
      vertex -4.46447 8.53553 1.8
      vertex -3.84265 7.77785 1.8
    endloop
  endfacet
  facet normal 0 0 1
    outer loop
      vertex 5.22215 9.15735 1.8
      vertex -5.22215 9.15735 1.8
      vertex -4.46447 8.53553 1.8
    endloop
  endfacet
  facet normal 0 0 1
    outer loop
      vertex 5.22215 9.15735 1.8
      vertex -6.08658 9.6194 1.8
      vertex -5.22215 9.15735 1.8
    endloop
  endfacet
  facet normal -0 0 1
    outer loop
      vertex -13.2 13.5 1.8
      vertex -6.08658 9.6194 1.8
      vertex 13.2 13.5 1.8
    endloop
  endfacet
  facet normal 0 0 1
    outer loop
      vertex -6.08658 9.6194 1.8
      vertex -13.2 13.5 1.8
      vertex -7.02455 9.90393 1.8
    endloop
  endfacet
  facet normal 0 0 1
    outer loop
      vertex -7.02455 9.90393 1.8
      vertex -13.2 13.5 1.8
      vertex -8 10 1.8
    endloop
  endfacet
  facet normal 0 0 1
    outer loop
      vertex -12.6194 6.91342 1.8
      vertex -14.6712 11.7074 1.8
      vertex -12.9039 5.97545 1.8
    endloop
  endfacet
  facet normal 0 0 1
    outer loop
      vertex -12.1573 7.77785 1.8
      vertex -14.6712 11.7074 1.8
      vertex -12.6194 6.91342 1.8
    endloop
  endfacet
  facet normal 0 0 1
    outer loop
      vertex -11.5355 8.53553 1.8
      vertex -14.6712 11.7074 1.8
      vertex -12.1573 7.77785 1.8
    endloop
  endfacet
  facet normal 0 0 1
    outer loop
      vertex -10.7779 9.15735 1.8
      vertex -14.6712 11.7074 1.8
      vertex -11.5355 8.53553 1.8
    endloop
  endfacet
  facet normal -0 0 1
    outer loop
      vertex -14.6712 11.7074 1.8
      vertex -10.7779 9.15735 1.8
      vertex -13.2 13.5 1.8
    endloop
  endfacet
  facet normal 0 0 1
    outer loop
      vertex -9.91342 9.6194 1.8
      vertex -13.2 13.5 1.8
      vertex -10.7779 9.15735 1.8
    endloop
  endfacet
  facet normal 0 0 1
    outer loop
      vertex -8.97545 9.90393 1.8
      vertex -13.2 13.5 1.8
      vertex -9.91342 9.6194 1.8
    endloop
  endfacet
  facet normal 0 0 1
    outer loop
      vertex -8 10 1.8
      vertex -13.2 13.5 1.8
      vertex -8.97545 9.90393 1.8
    endloop
  endfacet
  facet normal 0 0 1
    outer loop
      vertex 14.6712 12.2926 1.8
      vertex 14.6712 11.7074 1.8
      vertex 14.7 12 1.8
    endloop
  endfacet
  facet normal 0 0 1
    outer loop
      vertex 14.5858 12.574 1.8
      vertex 14.6712 11.7074 1.8
      vertex 14.6712 12.2926 1.8
    endloop
  endfacet
  facet normal 0 0 1
    outer loop
      vertex 14.4472 12.8334 1.8
      vertex 14.6712 11.7074 1.8
      vertex 14.5858 12.574 1.8
    endloop
  endfacet
  facet normal 0 0 1
    outer loop
      vertex 14.2607 13.0607 1.8
      vertex 14.6712 11.7074 1.8
      vertex 14.4472 12.8334 1.8
    endloop
  endfacet
  facet normal 0 0 1
    outer loop
      vertex 14.0334 13.2472 1.8
      vertex 14.6712 11.7074 1.8
      vertex 14.2607 13.0607 1.8
    endloop
  endfacet
  facet normal 0 0 1
    outer loop
      vertex 13.774 13.3858 1.8
      vertex 14.6712 11.7074 1.8
      vertex 14.0334 13.2472 1.8
    endloop
  endfacet
  facet normal 0 0 1
    outer loop
      vertex 13.4926 13.4712 1.8
      vertex 14.6712 11.7074 1.8
      vertex 13.774 13.3858 1.8
    endloop
  endfacet
  facet normal 0 0 1
    outer loop
      vertex 13.2 13.5 1.8
      vertex 14.6712 11.7074 1.8
      vertex 13.4926 13.4712 1.8
    endloop
  endfacet
  facet normal 0 0 1
    outer loop
      vertex 10.7779 9.15735 1.8
      vertex 14.6712 11.7074 1.8
      vertex 13.2 13.5 1.8
    endloop
  endfacet
  facet normal 0 0 1
    outer loop
      vertex 12.9039 4.02455 1.8
      vertex 14.6712 11.7074 1.8
      vertex 13 5 1.8
    endloop
  endfacet
  facet normal -0 0 1
    outer loop
      vertex 12.9039 4.02455 1.8
      vertex 11.1712 -12.2926 1.8
      vertex 14.6712 11.7074 1.8
    endloop
  endfacet
  facet normal -0 0 1
    outer loop
      vertex 12.6194 3.08658 1.8
      vertex 11.1712 -12.2926 1.8
      vertex 12.9039 4.02455 1.8
    endloop
  endfacet
  facet normal -0 0 1
    outer loop
      vertex 12.1573 2.22215 1.8
      vertex 11.1712 -12.2926 1.8
      vertex 12.6194 3.08658 1.8
    endloop
  endfacet
  facet normal -0 0 1
    outer loop
      vertex 11.5355 1.46447 1.8
      vertex 11.1712 -12.2926 1.8
      vertex 12.1573 2.22215 1.8
    endloop
  endfacet
  facet normal -0 0 1
    outer loop
      vertex 10.7779 0.842651 1.8
      vertex 11.1712 -12.2926 1.8
      vertex 11.5355 1.46447 1.8
    endloop
  endfacet
  facet normal -0 0 1
    outer loop
      vertex 9.91342 0.380602 1.8
      vertex 11.1712 -12.2926 1.8
      vertex 10.7779 0.842651 1.8
    endloop
  endfacet
  facet normal -0 0 1
    outer loop
      vertex 8.97545 0.0960732 1.8
      vertex 11.1712 -12.2926 1.8
      vertex 9.91342 0.380602 1.8
    endloop
  endfacet
  facet normal -0 0 1
    outer loop
      vertex 8 0 1.8
      vertex 11.1712 -12.2926 1.8
      vertex 8.97545 0.0960732 1.8
    endloop
  endfacet
  facet normal 0 0 1
    outer loop
      vertex 7.02455 0.0960732 1.8
      vertex 11.1712 -12.2926 1.8
      vertex 8 0 1.8
    endloop
  endfacet
  facet normal 0 -0 1
    outer loop
      vertex 9.7 -13.5 1.8
      vertex 11.1712 -12.2926 1.8
      vertex 7.02455 0.0960732 1.8
    endloop
  endfacet
  facet normal 0 0 1
    outer loop
      vertex 11.0858 -12.574 1.8
      vertex 9.7 -13.5 1.8
      vertex 10.9472 -12.8334 1.8
    endloop
  endfacet
  facet normal 0 0 1
    outer loop
      vertex 10.9472 -12.8334 1.8
      vertex 9.7 -13.5 1.8
      vertex 10.7607 -13.0607 1.8
    endloop
  endfacet
  facet normal 0 0 1
    outer loop
      vertex 10.7607 -13.0607 1.8
      vertex 9.7 -13.5 1.8
      vertex 10.5334 -13.2472 1.8
    endloop
  endfacet
  facet normal 0 0 1
    outer loop
      vertex 10.274 -13.3858 1.8
      vertex 9.7 -13.5 1.8
      vertex 9.99263 -13.4712 1.8
    endloop
  endfacet
  facet normal 0 0 1
    outer loop
      vertex 10.5334 -13.2472 1.8
      vertex 9.7 -13.5 1.8
      vertex 10.274 -13.3858 1.8
    endloop
  endfacet
  facet normal 0 0 1
    outer loop
      vertex 11.1712 -12.2926 1.8
      vertex 9.7 -13.5 1.8
      vertex 11.0858 -12.574 1.8
    endloop
  endfacet
  facet normal 0 0 1
    outer loop
      vertex 6.08658 0.380602 1.8
      vertex 9.7 -13.5 1.8
      vertex 7.02455 0.0960732 1.8
    endloop
  endfacet
  facet normal 0 0 1
    outer loop
      vertex 5.22215 0.842651 1.8
      vertex 9.7 -13.5 1.8
      vertex 6.08658 0.380602 1.8
    endloop
  endfacet
  facet normal 0 0 1
    outer loop
      vertex -5.22215 0.842651 1.8
      vertex 5.22215 0.842651 1.8
      vertex 4.46447 1.46447 1.8
    endloop
  endfacet
  facet normal 0 0 1
    outer loop
      vertex -4.46447 1.46447 1.8
      vertex 4.46447 1.46447 1.8
      vertex 3.84265 2.22215 1.8
    endloop
  endfacet
  facet normal 0 0 1
    outer loop
      vertex -3.84265 2.22215 1.8
      vertex 3.84265 2.22215 1.8
      vertex 3.3806 3.08658 1.8
    endloop
  endfacet
  facet normal -0 0 1
    outer loop
      vertex -3 5 1.8
      vertex 3.09607 4.02455 1.8
      vertex 3 5 1.8
    endloop
  endfacet
  facet normal 0 0 1
    outer loop
      vertex -3.09607 4.02455 1.8
      vertex 3.09607 4.02455 1.8
      vertex -3 5 1.8
    endloop
  endfacet
  facet normal 0 0 1
    outer loop
      vertex 3.09607 4.02455 1.8
      vertex -3.09607 4.02455 1.8
      vertex 3.3806 3.08658 1.8
    endloop
  endfacet
  facet normal 0 0 1
    outer loop
      vertex -3.3806 3.08658 1.8
      vertex 3.3806 3.08658 1.8
      vertex -3.09607 4.02455 1.8
    endloop
  endfacet
  facet normal 0 0 1
    outer loop
      vertex -3.84265 2.22215 1.8
      vertex 3.3806 3.08658 1.8
      vertex -3.3806 3.08658 1.8
    endloop
  endfacet
  facet normal 0 0 1
    outer loop
      vertex 3.84265 2.22215 1.8
      vertex -3.84265 2.22215 1.8
      vertex -4.46447 1.46447 1.8
    endloop
  endfacet
  facet normal 0 0 1
    outer loop
      vertex 4.46447 1.46447 1.8
      vertex -4.46447 1.46447 1.8
      vertex -5.22215 0.842651 1.8
    endloop
  endfacet
  facet normal 0 0 1
    outer loop
      vertex 5.22215 0.842651 1.8
      vertex -5.22215 0.842651 1.8
      vertex 9.7 -13.5 1.8
    endloop
  endfacet
  facet normal 0 0 1
    outer loop
      vertex -9.7 -13.5 1.8
      vertex -5.22215 0.842651 1.8
      vertex -6.08658 0.380602 1.8
    endloop
  endfacet
  facet normal 0 0 1
    outer loop
      vertex -9.7 -13.5 1.8
      vertex -6.08658 0.380602 1.8
      vertex -7.02455 0.0960732 1.8
    endloop
  endfacet
  facet normal 0 0 1
    outer loop
      vertex -11.1712 -12.2926 1.8
      vertex -7.02455 0.0960732 1.8
      vertex -8 0 1.8
    endloop
  endfacet
  facet normal 0 0 1
    outer loop
      vertex -11.1712 -12.2926 1.8
      vertex -8 0 1.8
      vertex -8.97545 0.0960732 1.8
    endloop
  endfacet
  facet normal 0 0 1
    outer loop
      vertex -5.22215 0.842651 1.8
      vertex -9.7 -13.5 1.8
      vertex 9.7 -13.5 1.8
    endloop
  endfacet
  facet normal 0 0 1
    outer loop
      vertex -11.1712 -12.2926 1.8
      vertex -8.97545 0.0960732 1.8
      vertex -9.91342 0.380602 1.8
    endloop
  endfacet
  facet normal 0 0 1
    outer loop
      vertex -7.02455 0.0960732 1.8
      vertex -11.1712 -12.2926 1.8
      vertex -9.7 -13.5 1.8
    endloop
  endfacet
  facet normal 0 0 1
    outer loop
      vertex -9.7 -13.5 1.8
      vertex -11.1712 -12.2926 1.8
      vertex -9.99263 -13.4712 1.8
    endloop
  endfacet
  facet normal 0 0 1
    outer loop
      vertex -9.99263 -13.4712 1.8
      vertex -11.1712 -12.2926 1.8
      vertex -10.274 -13.3858 1.8
    endloop
  endfacet
  facet normal 0 0 1
    outer loop
      vertex -10.274 -13.3858 1.8
      vertex -11.1712 -12.2926 1.8
      vertex -10.5334 -13.2472 1.8
    endloop
  endfacet
  facet normal 0 0 1
    outer loop
      vertex -11.1712 -12.2926 1.8
      vertex -9.91342 0.380602 1.8
      vertex -10.7779 0.842651 1.8
    endloop
  endfacet
  facet normal 0 0 1
    outer loop
      vertex -10.5334 -13.2472 1.8
      vertex -11.1712 -12.2926 1.8
      vertex -10.7607 -13.0607 1.8
    endloop
  endfacet
  facet normal 0 0 1
    outer loop
      vertex -10.7607 -13.0607 1.8
      vertex -11.1712 -12.2926 1.8
      vertex -10.9472 -12.8334 1.8
    endloop
  endfacet
  facet normal 0 0 1
    outer loop
      vertex -10.9472 -12.8334 1.8
      vertex -11.1712 -12.2926 1.8
      vertex -11.0858 -12.574 1.8
    endloop
  endfacet
  facet normal 0 0 1
    outer loop
      vertex -11.5355 1.46447 1.8
      vertex -11.1712 -12.2926 1.8
      vertex -10.7779 0.842651 1.8
    endloop
  endfacet
  facet normal 0 0 1
    outer loop
      vertex -12.1573 2.22215 1.8
      vertex -11.1712 -12.2926 1.8
      vertex -11.5355 1.46447 1.8
    endloop
  endfacet
  facet normal 0 0 1
    outer loop
      vertex -12.6194 3.08658 1.8
      vertex -11.1712 -12.2926 1.8
      vertex -12.1573 2.22215 1.8
    endloop
  endfacet
  facet normal 0 0 1
    outer loop
      vertex -12.9039 4.02455 1.8
      vertex -11.1712 -12.2926 1.8
      vertex -12.6194 3.08658 1.8
    endloop
  endfacet
  facet normal 0 0 1
    outer loop
      vertex -14.6712 11.7074 1.8
      vertex -13.2 13.5 1.8
      vertex -13.4926 13.4712 1.8
    endloop
  endfacet
  facet normal 0 0 1
    outer loop
      vertex -14.6712 11.7074 1.8
      vertex -13.4926 13.4712 1.8
      vertex -13.774 13.3858 1.8
    endloop
  endfacet
  facet normal 0 0 1
    outer loop
      vertex -14.6712 11.7074 1.8
      vertex -13.774 13.3858 1.8
      vertex -14.0334 13.2472 1.8
    endloop
  endfacet
  facet normal 0 0 1
    outer loop
      vertex -12.9039 5.97545 1.8
      vertex -14.6712 11.7074 1.8
      vertex -13 5 1.8
    endloop
  endfacet
  facet normal 0 0 1
    outer loop
      vertex -13 5 1.8
      vertex -14.6712 11.7074 1.8
      vertex -12.9039 4.02455 1.8
    endloop
  endfacet
  facet normal 0 0 1
    outer loop
      vertex -14.6712 11.7074 1.8
      vertex -14.0334 13.2472 1.8
      vertex -14.2607 13.0607 1.8
    endloop
  endfacet
  facet normal 0 0 1
    outer loop
      vertex -14.6712 11.7074 1.8
      vertex -14.2607 13.0607 1.8
      vertex -14.4472 12.8334 1.8
    endloop
  endfacet
  facet normal 0 0 1
    outer loop
      vertex -14.6712 11.7074 1.8
      vertex -14.4472 12.8334 1.8
      vertex -14.5858 12.574 1.8
    endloop
  endfacet
  facet normal 0 0 1
    outer loop
      vertex -14.6712 11.7074 1.8
      vertex -14.5858 12.574 1.8
      vertex -14.6712 12.2926 1.8
    endloop
  endfacet
  facet normal 0 0 1
    outer loop
      vertex -12.9039 4.02455 1.8
      vertex -14.6712 11.7074 1.8
      vertex -11.1712 -12.2926 1.8
    endloop
  endfacet
  facet normal 0 -0 1
    outer loop
      vertex -14.6712 11.7074 1.8
      vertex -14.6712 12.2926 1.8
      vertex -14.7 12 1.8
    endloop
  endfacet
  facet normal -0.773078 0.634311 -1.33882e-18
    outer loop
      vertex 10.7607 -13.0607 1.8
      vertex 10.9472 -12.8334 3.3
      vertex 10.9472 -12.8334 1.8
    endloop
  endfacet
  facet normal -0.773078 0.634311 -1.33882e-18
    outer loop
      vertex 10.9472 -12.8334 3.3
      vertex 10.7607 -13.0607 1.8
      vertex 10.7607 -13.0607 3.3
    endloop
  endfacet
  facet normal -0.0979446 0.995192 0
    outer loop
      vertex 9.99263 -13.4712 1.8
      vertex 9.7 -13.5 3.3
      vertex 9.99263 -13.4712 3.3
    endloop
  endfacet
  facet normal -0.0979446 0.995192 0
    outer loop
      vertex 9.7 -13.5 3.3
      vertex 9.99263 -13.4712 1.8
      vertex 9.7 -13.5 1.8
    endloop
  endfacet
  facet normal 0.471259 -0.881995 0
    outer loop
      vertex -14.0334 13.2472 1.8
      vertex -13.774 13.3858 3.3
      vertex -14.0334 13.2472 3.3
    endloop
  endfacet
  facet normal 0.471259 -0.881995 0
    outer loop
      vertex -13.774 13.3858 3.3
      vertex -14.0334 13.2472 1.8
      vertex -13.774 13.3858 1.8
    endloop
  endfacet
  facet normal 0.773078 -0.634311 -1.33882e-18
    outer loop
      vertex -14.4472 12.8334 3.3
      vertex -14.2607 13.0607 1.8
      vertex -14.2607 13.0607 3.3
    endloop
  endfacet
  facet normal 0.773078 -0.634311 -1.33882e-18
    outer loop
      vertex -14.2607 13.0607 1.8
      vertex -14.4472 12.8334 3.3
      vertex -14.4472 12.8334 1.8
    endloop
  endfacet
  facet normal -0.95694 -0.290285 1.62328e-17
    outer loop
      vertex -3.09607 5.97545 0.799999
      vertex -3.3806 6.91342 1.8
      vertex -3.3806 6.91342 0.799999
    endloop
  endfacet
  facet normal -0.95694 -0.290285 1.62328e-17
    outer loop
      vertex -3.3806 6.91342 1.8
      vertex -3.09607 5.97545 0.799999
      vertex -3.09607 5.97545 1.8
    endloop
  endfacet
  facet normal -0.995185 -0.0980137 4.78215e-18
    outer loop
      vertex -3 5 0.799999
      vertex -3.09607 5.97545 1.8
      vertex -3.09607 5.97545 0.799999
    endloop
  endfacet
  facet normal -0.995185 -0.0980137 4.78215e-18
    outer loop
      vertex -3.09607 5.97545 1.8
      vertex -3 5 0.799999
      vertex -3 5 1.8
    endloop
  endfacet
  facet normal -0.88192 -0.471399 2.60101e-17
    outer loop
      vertex -3.3806 6.91342 0.799999
      vertex -3.84265 7.77785 1.8
      vertex -3.84265 7.77785 0.799999
    endloop
  endfacet
  facet normal -0.88192 -0.471399 2.60101e-17
    outer loop
      vertex -3.84265 7.77785 1.8
      vertex -3.3806 6.91342 0.799999
      vertex -3.3806 6.91342 1.8
    endloop
  endfacet
  facet normal -0.471398 0.881921 0
    outer loop
      vertex -5.22215 0.842651 0.799999
      vertex -6.08658 0.380602 1.8
      vertex -5.22215 0.842651 1.8
    endloop
  endfacet
  facet normal -0.471398 0.881921 0
    outer loop
      vertex -6.08658 0.380602 1.8
      vertex -5.22215 0.842651 0.799999
      vertex -6.08658 0.380602 0.799999
    endloop
  endfacet
  facet normal -0.773006 -0.634398 -6.34335e-18
    outer loop
      vertex -3.84265 7.77785 0.799999
      vertex -4.46447 8.53553 1.8
      vertex -4.46447 8.53553 0.799999
    endloop
  endfacet
  facet normal -0.773006 -0.634398 -6.34335e-18
    outer loop
      vertex -4.46447 8.53553 1.8
      vertex -3.84265 7.77785 0.799999
      vertex -3.84265 7.77785 1.8
    endloop
  endfacet
  facet normal 0.881899 0.471438 1.44729e-17
    outer loop
      vertex -12.1573 2.22215 1.8
      vertex -12.6194 3.08658 0.799999
      vertex -12.6194 3.08658 1.8
    endloop
  endfacet
  facet normal 0.881899 0.471438 1.44729e-17
    outer loop
      vertex -12.6194 3.08658 0.799999
      vertex -12.1573 2.22215 1.8
      vertex -12.1573 2.22215 0.799999
    endloop
  endfacet
  facet normal 0.995182 -0.098044 2.36515e-18
    outer loop
      vertex -13 5 1.8
      vertex -12.9039 5.97545 0.799999
      vertex -12.9039 5.97545 1.8
    endloop
  endfacet
  facet normal 0.995182 -0.098044 2.36515e-18
    outer loop
      vertex -12.9039 5.97545 0.799999
      vertex -13 5 1.8
      vertex -13 5 0.799999
    endloop
  endfacet
  facet normal -0.471399 -0.88192 0
    outer loop
      vertex -6.08658 9.6194 0.799999
      vertex -5.22215 9.15735 1.8
      vertex -6.08658 9.6194 1.8
    endloop
  endfacet
  facet normal -0.471399 -0.88192 -0
    outer loop
      vertex -5.22215 9.15735 1.8
      vertex -6.08658 9.6194 0.799999
      vertex -5.22215 9.15735 0.799999
    endloop
  endfacet
  facet normal -0.0980137 -0.995185 0
    outer loop
      vertex -8 10 0.799999
      vertex -7.02455 9.90393 1.8
      vertex -8 10 1.8
    endloop
  endfacet
  facet normal -0.0980137 -0.995185 -0
    outer loop
      vertex -7.02455 9.90393 1.8
      vertex -8 10 0.799999
      vertex -7.02455 9.90393 0.799999
    endloop
  endfacet
  facet normal 0.956949 -0.290257 1.29143e-17
    outer loop
      vertex -12.9039 5.97545 1.8
      vertex -12.6194 6.91342 0.799999
      vertex -12.6194 6.91342 1.8
    endloop
  endfacet
  facet normal 0.956949 -0.290257 1.29143e-17
    outer loop
      vertex -12.6194 6.91342 0.799999
      vertex -12.9039 5.97545 1.8
      vertex -12.9039 5.97545 0.799999
    endloop
  endfacet
  facet normal -0.634398 0.773007 0
    outer loop
      vertex -4.46447 1.46447 0.799999
      vertex -5.22215 0.842651 1.8
      vertex -4.46447 1.46447 1.8
    endloop
  endfacet
  facet normal -0.634398 0.773007 0
    outer loop
      vertex -5.22215 0.842651 1.8
      vertex -4.46447 1.46447 0.799999
      vertex -5.22215 0.842651 0.799999
    endloop
  endfacet
  facet normal 0.773016 -0.634386 -1.17914e-17
    outer loop
      vertex -12.1573 7.77785 1.8
      vertex -11.5355 8.53553 0.799999
      vertex -11.5355 8.53553 1.8
    endloop
  endfacet
  facet normal 0.773016 -0.634386 -1.17914e-17
    outer loop
      vertex -11.5355 8.53553 0.799999
      vertex -12.1573 7.77785 1.8
      vertex -12.1573 7.77785 0.799999
    endloop
  endfacet
  facet normal 0.956949 0.290257 2.71678e-18
    outer loop
      vertex -12.6194 3.08658 1.8
      vertex -12.9039 4.02455 0.799999
      vertex -12.9039 4.02455 1.8
    endloop
  endfacet
  facet normal 0.956949 0.290257 2.71678e-18
    outer loop
      vertex -12.9039 4.02455 0.799999
      vertex -12.6194 3.08658 1.8
      vertex -12.6194 3.08658 0.799999
    endloop
  endfacet
  facet normal -0.95694 0.290285 2.47565e-17
    outer loop
      vertex -3.3806 3.08658 0.799999
      vertex -3.09607 4.02455 1.8
      vertex -3.09607 4.02455 0.799999
    endloop
  endfacet
  facet normal -0.95694 0.290285 2.47565e-17
    outer loop
      vertex -3.09607 4.02455 1.8
      vertex -3.3806 3.08658 0.799999
      vertex -3.3806 3.08658 1.8
    endloop
  endfacet
  facet normal -0.995185 0.0980137 -4.78215e-18
    outer loop
      vertex -3.09607 4.02455 0.799999
      vertex -3 5 1.8
      vertex -3 5 0.799999
    endloop
  endfacet
  facet normal -0.995185 0.0980137 -4.78215e-18
    outer loop
      vertex -3 5 1.8
      vertex -3.09607 4.02455 0.799999
      vertex -3.09607 4.02455 1.8
    endloop
  endfacet
  facet normal 0.634438 -0.772974 0
    outer loop
      vertex -11.5355 8.53553 0.799999
      vertex -10.7779 9.15735 1.8
      vertex -11.5355 8.53553 1.8
    endloop
  endfacet
  facet normal 0.634438 -0.772974 0
    outer loop
      vertex -10.7779 9.15735 1.8
      vertex -11.5355 8.53553 0.799999
      vertex -10.7779 9.15735 0.799999
    endloop
  endfacet
  facet normal 0.290285 -0.95694 0
    outer loop
      vertex -9.91342 9.6194 0.799999
      vertex -8.97545 9.90393 1.8
      vertex -9.91342 9.6194 1.8
    endloop
  endfacet
  facet normal 0.290285 -0.95694 0
    outer loop
      vertex -8.97545 9.90393 1.8
      vertex -9.91342 9.6194 0.799999
      vertex -8.97545 9.90393 0.799999
    endloop
  endfacet
  facet normal 0.471378 -0.881932 0
    outer loop
      vertex -10.7779 9.15735 0.799999
      vertex -9.91342 9.6194 1.8
      vertex -10.7779 9.15735 1.8
    endloop
  endfacet
  facet normal 0.471378 -0.881932 0
    outer loop
      vertex -9.91342 9.6194 1.8
      vertex -10.7779 9.15735 0.799999
      vertex -9.91342 9.6194 0.799999
    endloop
  endfacet
  facet normal 0.634438 0.772974 -0
    outer loop
      vertex -10.7779 0.842651 0.799999
      vertex -11.5355 1.46447 1.8
      vertex -10.7779 0.842651 1.8
    endloop
  endfacet
  facet normal 0.634438 0.772974 0
    outer loop
      vertex -11.5355 1.46447 1.8
      vertex -10.7779 0.842651 0.799999
      vertex -11.5355 1.46447 0.799999
    endloop
  endfacet
  facet normal -0.88192 0.471399 1.343e-17
    outer loop
      vertex -3.84265 2.22215 0.799999
      vertex -3.3806 3.08658 1.8
      vertex -3.3806 3.08658 0.799999
    endloop
  endfacet
  facet normal -0.88192 0.471399 1.343e-17
    outer loop
      vertex -3.3806 3.08658 1.8
      vertex -3.84265 2.22215 0.799999
      vertex -3.84265 2.22215 1.8
    endloop
  endfacet
  facet normal -0.773006 0.634398 4.90258e-18
    outer loop
      vertex -4.46447 1.46447 0.799999
      vertex -3.84265 2.22215 1.8
      vertex -3.84265 2.22215 0.799999
    endloop
  endfacet
  facet normal -0.773006 0.634398 4.90258e-18
    outer loop
      vertex -3.84265 2.22215 1.8
      vertex -4.46447 1.46447 0.799999
      vertex -4.46447 1.46447 1.8
    endloop
  endfacet
  facet normal 0.881899 -0.471438 2.6982e-18
    outer loop
      vertex -12.6194 6.91342 1.8
      vertex -12.1573 7.77785 0.799999
      vertex -12.1573 7.77785 1.8
    endloop
  endfacet
  facet normal 0.881899 -0.471438 2.6982e-18
    outer loop
      vertex -12.1573 7.77785 0.799999
      vertex -12.6194 6.91342 1.8
      vertex -12.6194 6.91342 0.799999
    endloop
  endfacet
  facet normal -0.290283 0.956941 0
    outer loop
      vertex -6.08658 0.380602 0.799999
      vertex -7.02455 0.0960732 1.8
      vertex -6.08658 0.380602 1.8
    endloop
  endfacet
  facet normal -0.290283 0.956941 0
    outer loop
      vertex -7.02455 0.0960732 1.8
      vertex -6.08658 0.380602 0.799999
      vertex -7.02455 0.0960732 0.799999
    endloop
  endfacet
  facet normal 0.290283 0.956941 -0
    outer loop
      vertex -8.97545 0.0960732 0.799999
      vertex -9.91342 0.380602 1.8
      vertex -8.97545 0.0960732 1.8
    endloop
  endfacet
  facet normal 0.290283 0.956941 0
    outer loop
      vertex -9.91342 0.380602 1.8
      vertex -8.97545 0.0960732 0.799999
      vertex -9.91342 0.380602 0.799999
    endloop
  endfacet
  facet normal -0.634398 -0.773006 0
    outer loop
      vertex -5.22215 9.15735 0.799999
      vertex -4.46447 8.53553 1.8
      vertex -5.22215 9.15735 1.8
    endloop
  endfacet
  facet normal -0.634398 -0.773006 -0
    outer loop
      vertex -4.46447 8.53553 1.8
      vertex -5.22215 9.15735 0.799999
      vertex -4.46447 8.53553 0.799999
    endloop
  endfacet
  facet normal 0.0980137 -0.995185 0
    outer loop
      vertex -8.97545 9.90393 0.799999
      vertex -8 10 1.8
      vertex -8.97545 9.90393 1.8
    endloop
  endfacet
  facet normal 0.0980137 -0.995185 0
    outer loop
      vertex -8 10 1.8
      vertex -8.97545 9.90393 0.799999
      vertex -8 10 0.799999
    endloop
  endfacet
  facet normal -0.0980169 0.995185 0
    outer loop
      vertex -7.02455 0.0960732 0.799999
      vertex -8 0 1.8
      vertex -7.02455 0.0960732 1.8
    endloop
  endfacet
  facet normal -0.0980169 0.995185 0
    outer loop
      vertex -8 0 1.8
      vertex -7.02455 0.0960732 0.799999
      vertex -8 0 0.799999
    endloop
  endfacet
  facet normal 0.773016 0.634386 1.32413e-17
    outer loop
      vertex -11.5355 1.46447 1.8
      vertex -12.1573 2.22215 0.799999
      vertex -12.1573 2.22215 1.8
    endloop
  endfacet
  facet normal 0.773016 0.634386 1.32413e-17
    outer loop
      vertex -12.1573 2.22215 0.799999
      vertex -11.5355 1.46447 1.8
      vertex -11.5355 1.46447 0.799999
    endloop
  endfacet
  facet normal -0.290285 -0.95694 0
    outer loop
      vertex -7.02455 9.90393 0.799999
      vertex -6.08658 9.6194 1.8
      vertex -7.02455 9.90393 1.8
    endloop
  endfacet
  facet normal -0.290285 -0.95694 -0
    outer loop
      vertex -6.08658 9.6194 1.8
      vertex -7.02455 9.90393 0.799999
      vertex -6.08658 9.6194 0.799999
    endloop
  endfacet
  facet normal 0 0 1
    outer loop
      vertex -3.09607 5.97545 0.799999
      vertex -3.09607 4.02455 0.799999
      vertex -3 5 0.799999
    endloop
  endfacet
  facet normal 0 0 1
    outer loop
      vertex -3.3806 6.91342 0.799999
      vertex -3.09607 4.02455 0.799999
      vertex -3.09607 5.97545 0.799999
    endloop
  endfacet
  facet normal 0 0 1
    outer loop
      vertex -3.3806 6.91342 0.799999
      vertex -3.3806 3.08658 0.799999
      vertex -3.09607 4.02455 0.799999
    endloop
  endfacet
  facet normal 0 0 1
    outer loop
      vertex -3.84265 7.77785 0.799999
      vertex -3.3806 3.08658 0.799999
      vertex -3.3806 6.91342 0.799999
    endloop
  endfacet
  facet normal 0 0 1
    outer loop
      vertex -3.84265 7.77785 0.799999
      vertex -3.84265 2.22215 0.799999
      vertex -3.3806 3.08658 0.799999
    endloop
  endfacet
  facet normal 0 0 1
    outer loop
      vertex -4.46447 8.53553 0.799999
      vertex -3.84265 2.22215 0.799999
      vertex -3.84265 7.77785 0.799999
    endloop
  endfacet
  facet normal 0 0 1
    outer loop
      vertex -4.46447 8.53553 0.799999
      vertex -4.46447 1.46447 0.799999
      vertex -3.84265 2.22215 0.799999
    endloop
  endfacet
  facet normal 0 0 1
    outer loop
      vertex -5.22215 9.15735 0.799999
      vertex -4.46447 1.46447 0.799999
      vertex -4.46447 8.53553 0.799999
    endloop
  endfacet
  facet normal 0 0 1
    outer loop
      vertex -5.22215 9.15735 0.799999
      vertex -5.22215 0.842651 0.799999
      vertex -4.46447 1.46447 0.799999
    endloop
  endfacet
  facet normal 0 0 1
    outer loop
      vertex -6.08658 9.6194 0.799999
      vertex -5.22215 0.842651 0.799999
      vertex -5.22215 9.15735 0.799999
    endloop
  endfacet
  facet normal 0 0 1
    outer loop
      vertex -6.08658 9.6194 0.799999
      vertex -6.08658 0.380602 0.799999
      vertex -5.22215 0.842651 0.799999
    endloop
  endfacet
  facet normal 0 0 1
    outer loop
      vertex -7.02455 9.90393 0.799999
      vertex -6.08658 0.380602 0.799999
      vertex -6.08658 9.6194 0.799999
    endloop
  endfacet
  facet normal 0 0 1
    outer loop
      vertex -7.02455 9.90393 0.799999
      vertex -7.02455 0.0960732 0.799999
      vertex -6.08658 0.380602 0.799999
    endloop
  endfacet
  facet normal 0 0 1
    outer loop
      vertex -8 10 0.799999
      vertex -7.02455 0.0960732 0.799999
      vertex -7.02455 9.90393 0.799999
    endloop
  endfacet
  facet normal 0 0 1
    outer loop
      vertex -8 10 0.799999
      vertex -8 0 0.799999
      vertex -7.02455 0.0960732 0.799999
    endloop
  endfacet
  facet normal -0 0 1
    outer loop
      vertex -8.97545 9.90393 0.799999
      vertex -8 0 0.799999
      vertex -8 10 0.799999
    endloop
  endfacet
  facet normal 0 0 1
    outer loop
      vertex -8.97545 9.90393 0.799999
      vertex -8.97545 0.0960732 0.799999
      vertex -8 0 0.799999
    endloop
  endfacet
  facet normal -0 0 1
    outer loop
      vertex -9.91342 9.6194 0.799999
      vertex -8.97545 0.0960732 0.799999
      vertex -8.97545 9.90393 0.799999
    endloop
  endfacet
  facet normal 0 0 1
    outer loop
      vertex -9.91342 9.6194 0.799999
      vertex -9.91342 0.380602 0.799999
      vertex -8.97545 0.0960732 0.799999
    endloop
  endfacet
  facet normal -0 0 1
    outer loop
      vertex -10.7779 9.15735 0.799999
      vertex -9.91342 0.380602 0.799999
      vertex -9.91342 9.6194 0.799999
    endloop
  endfacet
  facet normal 0 0 1
    outer loop
      vertex -10.7779 9.15735 0.799999
      vertex -10.7779 0.842651 0.799999
      vertex -9.91342 0.380602 0.799999
    endloop
  endfacet
  facet normal -0 0 1
    outer loop
      vertex -11.5355 8.53553 0.799999
      vertex -10.7779 0.842651 0.799999
      vertex -10.7779 9.15735 0.799999
    endloop
  endfacet
  facet normal 0 0 1
    outer loop
      vertex -11.5355 8.53553 0.799999
      vertex -11.5355 1.46447 0.799999
      vertex -10.7779 0.842651 0.799999
    endloop
  endfacet
  facet normal -0 0 1
    outer loop
      vertex -12.1573 7.77785 0.799999
      vertex -11.5355 1.46447 0.799999
      vertex -11.5355 8.53553 0.799999
    endloop
  endfacet
  facet normal 0 0 1
    outer loop
      vertex -12.1573 7.77785 0.799999
      vertex -12.1573 2.22215 0.799999
      vertex -11.5355 1.46447 0.799999
    endloop
  endfacet
  facet normal -0 0 1
    outer loop
      vertex -12.6194 6.91342 0.799999
      vertex -12.1573 2.22215 0.799999
      vertex -12.1573 7.77785 0.799999
    endloop
  endfacet
  facet normal 0 0 1
    outer loop
      vertex -12.6194 6.91342 0.799999
      vertex -12.6194 3.08658 0.799999
      vertex -12.1573 2.22215 0.799999
    endloop
  endfacet
  facet normal -0 0 1
    outer loop
      vertex -12.9039 5.97545 0.799999
      vertex -12.6194 3.08658 0.799999
      vertex -12.6194 6.91342 0.799999
    endloop
  endfacet
  facet normal 0 0 1
    outer loop
      vertex -12.9039 5.97545 0.799999
      vertex -12.9039 4.02455 0.799999
      vertex -12.6194 3.08658 0.799999
    endloop
  endfacet
  facet normal 0 -0 1
    outer loop
      vertex -12.9039 4.02455 0.799999
      vertex -12.9039 5.97545 0.799999
      vertex -13 5 0.799999
    endloop
  endfacet
  facet normal 0.995182 0.098044 -2.36515e-18
    outer loop
      vertex -12.9039 4.02455 1.8
      vertex -13 5 0.799999
      vertex -13 5 1.8
    endloop
  endfacet
  facet normal 0.995182 0.098044 -2.36515e-18
    outer loop
      vertex -13 5 0.799999
      vertex -12.9039 4.02455 1.8
      vertex -12.9039 4.02455 0.799999
    endloop
  endfacet
  facet normal 0.0980169 0.995185 -0
    outer loop
      vertex -8 0 0.799999
      vertex -8.97545 0.0960732 1.8
      vertex -8 0 1.8
    endloop
  endfacet
  facet normal 0.0980169 0.995185 0
    outer loop
      vertex -8.97545 0.0960732 1.8
      vertex -8 0 0.799999
      vertex -8.97545 0.0960732 0.799999
    endloop
  endfacet
  facet normal 0.471377 0.881932 -0
    outer loop
      vertex -9.91342 0.380602 0.799999
      vertex -10.7779 0.842651 1.8
      vertex -9.91342 0.380602 1.8
    endloop
  endfacet
  facet normal 0.471377 0.881932 0
    outer loop
      vertex -10.7779 0.842651 1.8
      vertex -9.91342 0.380602 0.799999
      vertex -10.7779 0.842651 0.799999
    endloop
  endfacet
  facet normal -0.290283 0.956941 0
    outer loop
      vertex 9.91342 0.380602 0.799999
      vertex 8.97545 0.0960732 1.8
      vertex 9.91342 0.380602 1.8
    endloop
  endfacet
  facet normal -0.290283 0.956941 0
    outer loop
      vertex 8.97545 0.0960732 1.8
      vertex 9.91342 0.380602 0.799999
      vertex 8.97545 0.0960732 0.799999
    endloop
  endfacet
  facet normal -0.956949 -0.290257 -1.29143e-17
    outer loop
      vertex 12.9039 5.97545 0.799999
      vertex 12.6194 6.91342 1.8
      vertex 12.6194 6.91342 0.799999
    endloop
  endfacet
  facet normal -0.956949 -0.290257 -1.29143e-17
    outer loop
      vertex 12.6194 6.91342 1.8
      vertex 12.9039 5.97545 0.799999
      vertex 12.9039 5.97545 1.8
    endloop
  endfacet
  facet normal -0.995182 -0.098044 -2.36515e-18
    outer loop
      vertex 13 5 0.799999
      vertex 12.9039 5.97545 1.8
      vertex 12.9039 5.97545 0.799999
    endloop
  endfacet
  facet normal -0.995182 -0.098044 -2.36515e-18
    outer loop
      vertex 12.9039 5.97545 1.8
      vertex 13 5 0.799999
      vertex 13 5 1.8
    endloop
  endfacet
  facet normal -0.881899 -0.471438 -2.6982e-18
    outer loop
      vertex 12.6194 6.91342 0.799999
      vertex 12.1573 7.77785 1.8
      vertex 12.1573 7.77785 0.799999
    endloop
  endfacet
  facet normal -0.881899 -0.471438 -2.6982e-18
    outer loop
      vertex 12.1573 7.77785 1.8
      vertex 12.6194 6.91342 0.799999
      vertex 12.6194 6.91342 1.8
    endloop
  endfacet
  facet normal 0 0 1
    outer loop
      vertex 12.9039 5.97545 0.799999
      vertex 12.9039 4.02455 0.799999
      vertex 13 5 0.799999
    endloop
  endfacet
  facet normal 0 0 1
    outer loop
      vertex 12.6194 6.91342 0.799999
      vertex 12.9039 4.02455 0.799999
      vertex 12.9039 5.97545 0.799999
    endloop
  endfacet
  facet normal 0 0 1
    outer loop
      vertex 12.6194 6.91342 0.799999
      vertex 12.6194 3.08658 0.799999
      vertex 12.9039 4.02455 0.799999
    endloop
  endfacet
  facet normal 0 0 1
    outer loop
      vertex 12.1573 7.77785 0.799999
      vertex 12.6194 3.08658 0.799999
      vertex 12.6194 6.91342 0.799999
    endloop
  endfacet
  facet normal 0 0 1
    outer loop
      vertex 12.1573 7.77785 0.799999
      vertex 12.1573 2.22215 0.799999
      vertex 12.6194 3.08658 0.799999
    endloop
  endfacet
  facet normal 0 0 1
    outer loop
      vertex 11.5355 8.53553 0.799999
      vertex 12.1573 2.22215 0.799999
      vertex 12.1573 7.77785 0.799999
    endloop
  endfacet
  facet normal 0 0 1
    outer loop
      vertex 11.5355 8.53553 0.799999
      vertex 11.5355 1.46447 0.799999
      vertex 12.1573 2.22215 0.799999
    endloop
  endfacet
  facet normal 0 0 1
    outer loop
      vertex 10.7779 9.15735 0.799999
      vertex 11.5355 1.46447 0.799999
      vertex 11.5355 8.53553 0.799999
    endloop
  endfacet
  facet normal 0 0 1
    outer loop
      vertex 10.7779 9.15735 0.799999
      vertex 10.7779 0.842651 0.799999
      vertex 11.5355 1.46447 0.799999
    endloop
  endfacet
  facet normal 0 0 1
    outer loop
      vertex 9.91342 9.6194 0.799999
      vertex 10.7779 0.842651 0.799999
      vertex 10.7779 9.15735 0.799999
    endloop
  endfacet
  facet normal 0 0 1
    outer loop
      vertex 9.91342 9.6194 0.799999
      vertex 9.91342 0.380602 0.799999
      vertex 10.7779 0.842651 0.799999
    endloop
  endfacet
  facet normal 0 0 1
    outer loop
      vertex 8.97545 9.90393 0.799999
      vertex 9.91342 0.380602 0.799999
      vertex 9.91342 9.6194 0.799999
    endloop
  endfacet
  facet normal 0 0 1
    outer loop
      vertex 8.97545 9.90393 0.799999
      vertex 8.97545 0.0960732 0.799999
      vertex 9.91342 0.380602 0.799999
    endloop
  endfacet
  facet normal 0 0 1
    outer loop
      vertex 8 10 0.799999
      vertex 8.97545 0.0960732 0.799999
      vertex 8.97545 9.90393 0.799999
    endloop
  endfacet
  facet normal 0 0 1
    outer loop
      vertex 8 10 0.799999
      vertex 8 0 0.799999
      vertex 8.97545 0.0960732 0.799999
    endloop
  endfacet
  facet normal -0 0 1
    outer loop
      vertex 7.02455 9.90393 0.799999
      vertex 8 0 0.799999
      vertex 8 10 0.799999
    endloop
  endfacet
  facet normal 0 0 1
    outer loop
      vertex 7.02455 9.90393 0.799999
      vertex 7.02455 0.0960732 0.799999
      vertex 8 0 0.799999
    endloop
  endfacet
  facet normal -0 0 1
    outer loop
      vertex 6.08658 9.6194 0.799999
      vertex 7.02455 0.0960732 0.799999
      vertex 7.02455 9.90393 0.799999
    endloop
  endfacet
  facet normal 0 0 1
    outer loop
      vertex 6.08658 9.6194 0.799999
      vertex 6.08658 0.380602 0.799999
      vertex 7.02455 0.0960732 0.799999
    endloop
  endfacet
  facet normal -0 0 1
    outer loop
      vertex 5.22215 9.15735 0.799999
      vertex 6.08658 0.380602 0.799999
      vertex 6.08658 9.6194 0.799999
    endloop
  endfacet
  facet normal 0 0 1
    outer loop
      vertex 5.22215 9.15735 0.799999
      vertex 5.22215 0.842651 0.799999
      vertex 6.08658 0.380602 0.799999
    endloop
  endfacet
  facet normal -0 0 1
    outer loop
      vertex 4.46447 8.53553 0.799999
      vertex 5.22215 0.842651 0.799999
      vertex 5.22215 9.15735 0.799999
    endloop
  endfacet
  facet normal 0 0 1
    outer loop
      vertex 4.46447 8.53553 0.799999
      vertex 4.46447 1.46447 0.799999
      vertex 5.22215 0.842651 0.799999
    endloop
  endfacet
  facet normal -0 0 1
    outer loop
      vertex 3.84265 7.77785 0.799999
      vertex 4.46447 1.46447 0.799999
      vertex 4.46447 8.53553 0.799999
    endloop
  endfacet
  facet normal 0 0 1
    outer loop
      vertex 3.84265 7.77785 0.799999
      vertex 3.84265 2.22215 0.799999
      vertex 4.46447 1.46447 0.799999
    endloop
  endfacet
  facet normal -0 0 1
    outer loop
      vertex 3.3806 6.91342 0.799999
      vertex 3.84265 2.22215 0.799999
      vertex 3.84265 7.77785 0.799999
    endloop
  endfacet
  facet normal 0 0 1
    outer loop
      vertex 3.3806 6.91342 0.799999
      vertex 3.3806 3.08658 0.799999
      vertex 3.84265 2.22215 0.799999
    endloop
  endfacet
  facet normal -0 0 1
    outer loop
      vertex 3.09607 5.97545 0.799999
      vertex 3.3806 3.08658 0.799999
      vertex 3.3806 6.91342 0.799999
    endloop
  endfacet
  facet normal 0 0 1
    outer loop
      vertex 3.09607 5.97545 0.799999
      vertex 3.09607 4.02455 0.799999
      vertex 3.3806 3.08658 0.799999
    endloop
  endfacet
  facet normal 0 -0 1
    outer loop
      vertex 3.09607 4.02455 0.799999
      vertex 3.09607 5.97545 0.799999
      vertex 3 5 0.799999
    endloop
  endfacet
  facet normal 0.88192 0.471399 -1.343e-17
    outer loop
      vertex 3.84265 2.22215 1.8
      vertex 3.3806 3.08658 0.799999
      vertex 3.3806 3.08658 1.8
    endloop
  endfacet
  facet normal 0.88192 0.471399 -1.343e-17
    outer loop
      vertex 3.3806 3.08658 0.799999
      vertex 3.84265 2.22215 1.8
      vertex 3.84265 2.22215 0.799999
    endloop
  endfacet
  facet normal -0.290285 -0.95694 0
    outer loop
      vertex 8.97545 9.90393 0.799999
      vertex 9.91342 9.6194 1.8
      vertex 8.97545 9.90393 1.8
    endloop
  endfacet
  facet normal -0.290285 -0.95694 -0
    outer loop
      vertex 9.91342 9.6194 1.8
      vertex 8.97545 9.90393 0.799999
      vertex 9.91342 9.6194 0.799999
    endloop
  endfacet
  facet normal 0.0980137 -0.995185 0
    outer loop
      vertex 7.02455 9.90393 0.799999
      vertex 8 10 1.8
      vertex 7.02455 9.90393 1.8
    endloop
  endfacet
  facet normal 0.0980137 -0.995185 0
    outer loop
      vertex 8 10 1.8
      vertex 7.02455 9.90393 0.799999
      vertex 8 10 0.799999
    endloop
  endfacet
  facet normal 0.471398 0.881921 -0
    outer loop
      vertex 6.08658 0.380602 0.799999
      vertex 5.22215 0.842651 1.8
      vertex 6.08658 0.380602 1.8
    endloop
  endfacet
  facet normal 0.471398 0.881921 0
    outer loop
      vertex 5.22215 0.842651 1.8
      vertex 6.08658 0.380602 0.799999
      vertex 5.22215 0.842651 0.799999
    endloop
  endfacet
  facet normal 0.471399 -0.88192 0
    outer loop
      vertex 5.22215 9.15735 0.799999
      vertex 6.08658 9.6194 1.8
      vertex 5.22215 9.15735 1.8
    endloop
  endfacet
  facet normal 0.471399 -0.88192 0
    outer loop
      vertex 6.08658 9.6194 1.8
      vertex 5.22215 9.15735 0.799999
      vertex 6.08658 9.6194 0.799999
    endloop
  endfacet
  facet normal -0.471377 0.881932 0
    outer loop
      vertex 10.7779 0.842651 0.799999
      vertex 9.91342 0.380602 1.8
      vertex 10.7779 0.842651 1.8
    endloop
  endfacet
  facet normal -0.471377 0.881932 0
    outer loop
      vertex 9.91342 0.380602 1.8
      vertex 10.7779 0.842651 0.799999
      vertex 9.91342 0.380602 0.799999
    endloop
  endfacet
  facet normal 0.773006 -0.634398 6.34335e-18
    outer loop
      vertex 3.84265 7.77785 1.8
      vertex 4.46447 8.53553 0.799999
      vertex 4.46447 8.53553 1.8
    endloop
  endfacet
  facet normal 0.773006 -0.634398 6.34335e-18
    outer loop
      vertex 4.46447 8.53553 0.799999
      vertex 3.84265 7.77785 1.8
      vertex 3.84265 7.77785 0.799999
    endloop
  endfacet
  facet normal -0.773016 -0.634386 1.17914e-17
    outer loop
      vertex 12.1573 7.77785 0.799999
      vertex 11.5355 8.53553 1.8
      vertex 11.5355 8.53553 0.799999
    endloop
  endfacet
  facet normal -0.773016 -0.634386 1.17914e-17
    outer loop
      vertex 11.5355 8.53553 1.8
      vertex 12.1573 7.77785 0.799999
      vertex 12.1573 7.77785 1.8
    endloop
  endfacet
  facet normal -0.773016 0.634386 -1.32413e-17
    outer loop
      vertex 11.5355 1.46447 0.799999
      vertex 12.1573 2.22215 1.8
      vertex 12.1573 2.22215 0.799999
    endloop
  endfacet
  facet normal -0.773016 0.634386 -1.32413e-17
    outer loop
      vertex 12.1573 2.22215 1.8
      vertex 11.5355 1.46447 0.799999
      vertex 11.5355 1.46447 1.8
    endloop
  endfacet
  facet normal 0.290285 -0.95694 0
    outer loop
      vertex 6.08658 9.6194 0.799999
      vertex 7.02455 9.90393 1.8
      vertex 6.08658 9.6194 1.8
    endloop
  endfacet
  facet normal 0.290285 -0.95694 0
    outer loop
      vertex 7.02455 9.90393 1.8
      vertex 6.08658 9.6194 0.799999
      vertex 7.02455 9.90393 0.799999
    endloop
  endfacet
  facet normal -0.634438 0.772974 0
    outer loop
      vertex 11.5355 1.46447 0.799999
      vertex 10.7779 0.842651 1.8
      vertex 11.5355 1.46447 1.8
    endloop
  endfacet
  facet normal -0.634438 0.772974 0
    outer loop
      vertex 10.7779 0.842651 1.8
      vertex 11.5355 1.46447 0.799999
      vertex 10.7779 0.842651 0.799999
    endloop
  endfacet
  facet normal -0.995182 0.098044 2.36515e-18
    outer loop
      vertex 12.9039 4.02455 0.799999
      vertex 13 5 1.8
      vertex 13 5 0.799999
    endloop
  endfacet
  facet normal -0.995182 0.098044 2.36515e-18
    outer loop
      vertex 13 5 1.8
      vertex 12.9039 4.02455 0.799999
      vertex 12.9039 4.02455 1.8
    endloop
  endfacet
  facet normal 0.290283 0.956941 -0
    outer loop
      vertex 7.02455 0.0960732 0.799999
      vertex 6.08658 0.380602 1.8
      vertex 7.02455 0.0960732 1.8
    endloop
  endfacet
  facet normal 0.290283 0.956941 0
    outer loop
      vertex 6.08658 0.380602 1.8
      vertex 7.02455 0.0960732 0.799999
      vertex 6.08658 0.380602 0.799999
    endloop
  endfacet
  facet normal -0.956949 0.290257 -2.71678e-18
    outer loop
      vertex 12.6194 3.08658 0.799999
      vertex 12.9039 4.02455 1.8
      vertex 12.9039 4.02455 0.799999
    endloop
  endfacet
  facet normal -0.956949 0.290257 -2.71678e-18
    outer loop
      vertex 12.9039 4.02455 1.8
      vertex 12.6194 3.08658 0.799999
      vertex 12.6194 3.08658 1.8
    endloop
  endfacet
  facet normal 0.95694 0.290285 -2.47565e-17
    outer loop
      vertex 3.3806 3.08658 1.8
      vertex 3.09607 4.02455 0.799999
      vertex 3.09607 4.02455 1.8
    endloop
  endfacet
  facet normal 0.95694 0.290285 -2.47565e-17
    outer loop
      vertex 3.09607 4.02455 0.799999
      vertex 3.3806 3.08658 1.8
      vertex 3.3806 3.08658 0.799999
    endloop
  endfacet
  facet normal -0.881899 0.471438 -1.44729e-17
    outer loop
      vertex 12.1573 2.22215 0.799999
      vertex 12.6194 3.08658 1.8
      vertex 12.6194 3.08658 0.799999
    endloop
  endfacet
  facet normal -0.881899 0.471438 -1.44729e-17
    outer loop
      vertex 12.6194 3.08658 1.8
      vertex 12.1573 2.22215 0.799999
      vertex 12.1573 2.22215 1.8
    endloop
  endfacet
  facet normal 0.995185 -0.0980137 -4.78215e-18
    outer loop
      vertex 3 5 1.8
      vertex 3.09607 5.97545 0.799999
      vertex 3.09607 5.97545 1.8
    endloop
  endfacet
  facet normal 0.995185 -0.0980137 -4.78215e-18
    outer loop
      vertex 3.09607 5.97545 0.799999
      vertex 3 5 1.8
      vertex 3 5 0.799999
    endloop
  endfacet
  facet normal -0.0980137 -0.995185 0
    outer loop
      vertex 8 10 0.799999
      vertex 8.97545 9.90393 1.8
      vertex 8 10 1.8
    endloop
  endfacet
  facet normal -0.0980137 -0.995185 -0
    outer loop
      vertex 8.97545 9.90393 1.8
      vertex 8 10 0.799999
      vertex 8.97545 9.90393 0.799999
    endloop
  endfacet
  facet normal 0.634398 -0.773006 0
    outer loop
      vertex 4.46447 8.53553 0.799999
      vertex 5.22215 9.15735 1.8
      vertex 4.46447 8.53553 1.8
    endloop
  endfacet
  facet normal 0.634398 -0.773006 0
    outer loop
      vertex 5.22215 9.15735 1.8
      vertex 4.46447 8.53553 0.799999
      vertex 5.22215 9.15735 0.799999
    endloop
  endfacet
  facet normal -0.634438 -0.772974 0
    outer loop
      vertex 10.7779 9.15735 0.799999
      vertex 11.5355 8.53553 1.8
      vertex 10.7779 9.15735 1.8
    endloop
  endfacet
  facet normal -0.634438 -0.772974 -0
    outer loop
      vertex 11.5355 8.53553 1.8
      vertex 10.7779 9.15735 0.799999
      vertex 11.5355 8.53553 0.799999
    endloop
  endfacet
  facet normal -0.0980169 0.995185 0
    outer loop
      vertex 8.97545 0.0960732 0.799999
      vertex 8 0 1.8
      vertex 8.97545 0.0960732 1.8
    endloop
  endfacet
  facet normal -0.0980169 0.995185 0
    outer loop
      vertex 8 0 1.8
      vertex 8.97545 0.0960732 0.799999
      vertex 8 0 0.799999
    endloop
  endfacet
  facet normal -0.471378 -0.881932 0
    outer loop
      vertex 9.91342 9.6194 0.799999
      vertex 10.7779 9.15735 1.8
      vertex 9.91342 9.6194 1.8
    endloop
  endfacet
  facet normal -0.471378 -0.881932 -0
    outer loop
      vertex 10.7779 9.15735 1.8
      vertex 9.91342 9.6194 0.799999
      vertex 10.7779 9.15735 0.799999
    endloop
  endfacet
  facet normal 0.773006 0.634398 -4.90258e-18
    outer loop
      vertex 4.46447 1.46447 1.8
      vertex 3.84265 2.22215 0.799999
      vertex 3.84265 2.22215 1.8
    endloop
  endfacet
  facet normal 0.773006 0.634398 -4.90258e-18
    outer loop
      vertex 3.84265 2.22215 0.799999
      vertex 4.46447 1.46447 1.8
      vertex 4.46447 1.46447 0.799999
    endloop
  endfacet
  facet normal 0.0980169 0.995185 -0
    outer loop
      vertex 8 0 0.799999
      vertex 7.02455 0.0960732 1.8
      vertex 8 0 1.8
    endloop
  endfacet
  facet normal 0.0980169 0.995185 0
    outer loop
      vertex 7.02455 0.0960732 1.8
      vertex 8 0 0.799999
      vertex 7.02455 0.0960732 0.799999
    endloop
  endfacet
  facet normal 0.634398 0.773007 -0
    outer loop
      vertex 5.22215 0.842651 0.799999
      vertex 4.46447 1.46447 1.8
      vertex 5.22215 0.842651 1.8
    endloop
  endfacet
  facet normal 0.634398 0.773007 0
    outer loop
      vertex 4.46447 1.46447 1.8
      vertex 5.22215 0.842651 0.799999
      vertex 4.46447 1.46447 0.799999
    endloop
  endfacet
  facet normal 0.95694 -0.290285 -1.62328e-17
    outer loop
      vertex 3.09607 5.97545 1.8
      vertex 3.3806 6.91342 0.799999
      vertex 3.3806 6.91342 1.8
    endloop
  endfacet
  facet normal 0.95694 -0.290285 -1.62328e-17
    outer loop
      vertex 3.3806 6.91342 0.799999
      vertex 3.09607 5.97545 1.8
      vertex 3.09607 5.97545 0.799999
    endloop
  endfacet
  facet normal 0.88192 -0.471399 -2.60101e-17
    outer loop
      vertex 3.3806 6.91342 1.8
      vertex 3.84265 7.77785 0.799999
      vertex 3.84265 7.77785 1.8
    endloop
  endfacet
  facet normal 0.88192 -0.471399 -2.60101e-17
    outer loop
      vertex 3.84265 7.77785 0.799999
      vertex 3.3806 6.91342 1.8
      vertex 3.3806 6.91342 0.799999
    endloop
  endfacet
  facet normal 0.995185 0.0980137 4.78215e-18
    outer loop
      vertex 3.09607 4.02455 1.8
      vertex 3 5 0.799999
      vertex 3 5 1.8
    endloop
  endfacet
  facet normal 0.995185 0.0980137 4.78215e-18
    outer loop
      vertex 3 5 0.799999
      vertex 3.09607 4.02455 1.8
      vertex 3.09607 4.02455 0.799999
    endloop
  endfacet
endsolid OpenSCAD_Model
